<?xml version="1.0" encoding="UTF-8"?>
<svg version="1.1" xmlns="http://www.w3.org/2000/svg" width="500" height="500">
<path d="M0 0 C6.27 0 12.54 0 19 0 C19 27.39 19 54.78 19 83 C14.05 83 9.1 83 4 83 C3.01 81.35 2.02 79.7 1 78 C0.52949219 78.34933594 0.05898438 78.69867188 -0.42578125 79.05859375 C-1.04839844 79.51363281 -1.67101562 79.96867187 -2.3125 80.4375 C-2.92738281 80.88996094 -3.54226563 81.34242188 -4.17578125 81.80859375 C-9.39770655 85.21905888 -16.02592216 84.52300805 -22 84 C-28.61127961 80.93047732 -32.50919352 75.68572078 -35.3125 69.125 C-38.68823248 59.01158106 -38.2052725 48.15459017 -34.16796875 38.33203125 C-30.91453125 31.83603731 -27.66118769 28.10072907 -21 25 C-12.76323675 23.02011401 -8.32216151 24.22594616 0 27 C0 18.09 0 9.18 0 0 Z M-15 41.8125 C-18.8444484 47.93958964 -18.4837748 53.94707268 -18 61 C-16.97916182 65.21711773 -15.70162506 67.53224996 -12 70 C-7.23339001 69.73518833 -3.78020412 68.9529849 0 66 C0.73667637 63.34131013 0.73667637 63.34131013 0.59375 60.30859375 C0.59117187 59.19935547 0.58859375 58.09011719 0.5859375 56.94726562 C0.55757813 55.78904297 0.52921875 54.63082031 0.5 53.4375 C0.50257813 52.27541016 0.50515625 51.11332031 0.5078125 49.91601562 C0.49021485 45.4372216 0.49021485 45.4372216 0 41 C-3.56913557 38.62057629 -5.5869766 38.46796701 -9.7734375 38.54296875 C-12.40365189 39.08285486 -13.27996743 39.785678 -15 41.8125 Z " fill="#111241" transform="translate(287,191)"/>
<path d="M0 0 C2.94101365 1.38192208 5.49673969 2.98034018 8.1171875 4.8984375 C9.27541016 5.74148437 9.27541016 5.74148437 10.45703125 6.6015625 C11.25496094 7.18679687 12.05289062 7.77203125 12.875 8.375 C14.45496654 9.52969006 16.03568043 10.68335831 17.6171875 11.8359375 C18.36452148 12.38217773 19.11185547 12.92841797 19.88183594 13.49121094 C21.7463146 14.8192974 23.63732288 16.06434389 25.5703125 17.2890625 C26.37210937 17.85367188 27.17390625 18.41828125 28 19 C28 19.66 28 20.32 28 21 C28.65613281 21.20496094 29.31226563 21.40992188 29.98828125 21.62109375 C34.17233588 23.53675041 37.56039565 26.25600749 41.1875 29.0625 C42.61748467 30.15886403 44.04842917 31.25397765 45.48046875 32.34765625 C46.10848389 32.83242432 46.73649902 33.31719238 47.38354492 33.81665039 C49.00207569 35.07082229 49.00207569 35.07082229 51 36 C51 36.66 51 37.32 51 38 C51.66 38 52.32 38 53 38 C53 38.66 53 39.32 53 40 C53.66 40 54.32 40 55 40 C57.13614849 44.27229699 57.57476224 48.29992816 57 53 C54.26058043 61.05711639 46.84581836 65.1958599 40.1875 69.875 C39.61209473 70.28081299 39.03668945 70.68662598 38.44384766 71.10473633 C34.24170708 74 34.24170708 74 32 74 C32 74.66 32 75.32 32 76 C29.63626188 77.74777042 27.26556788 79.38600072 24.8125 81 C18.6913639 85.09559403 12.78449687 89.34686224 7.07543945 94.00195312 C3.31626526 97 3.31626526 97 0 97 C-2.51817342 76.8812472 -2.51817342 76.8812472 1.3125 70.97705078 C4.91611313 67.56425397 9.26771211 65.45270278 13.68066406 63.26123047 C17.73443551 61.05683223 21.25982257 58.16177817 24.875 55.3125 C31.71319065 50 31.71319065 50 34 50 C34 49.34 34 48.68 34 48 C33.236875 47.71125 32.47375 47.4225 31.6875 47.125 C29 46 29 46 26 44 C23.10261815 46.08118628 20.20737707 48.16533139 17.3125 50.25 C16.49587891 50.83652344 15.67925781 51.42304688 14.83789062 52.02734375 C11.516078 54.42120062 8.2472621 56.79311404 5.10546875 59.421875 C3 61 3 61 0 61 C-0.19533059 57.9378174 -0.38153284 54.87553679 -0.5625 51.8125 C-0.61857422 50.94818359 -0.67464844 50.08386719 -0.73242188 49.19335938 C-1.24252616 40.31754484 -1.24252616 40.31754484 0 37 C1.84765625 35.26953125 1.84765625 35.26953125 4.0625 33.8125 C5.40490671 32.9183486 6.7262007 31.98944319 8 31 C8 30.34 8 29.68 8 29 C7.236875 28.731875 6.47375 28.46375 5.6875 28.1875 C2.98799347 26.99469479 1.76496313 26.3163745 0 24 C-0.34057617 21.45629883 -0.34057617 21.45629883 -0.29296875 18.45703125 C-0.28330078 17.38388672 -0.27363281 16.31074219 -0.26367188 15.20507812 C-0.23853516 14.08552734 -0.21339844 12.96597656 -0.1875 11.8125 C-0.16719727 10.11577148 -0.16719727 10.11577148 -0.14648438 8.38476562 C-0.11109958 5.58936683 -0.06172948 2.79492108 0 0 Z " fill="#0E1140" transform="translate(315,195)"/>
<path d="M0 0 C0.66 0.33 1.32 0.66 2 1 C2.11627503 4.58305992 2.1872736 8.16563417 2.25 11.75 C2.30027344 13.27367187 2.30027344 13.27367187 2.3515625 14.828125 C2.45064511 22.35840357 2.45064511 22.35840357 0.15625 25.625 C-2.15983775 27.10192552 -4.39560035 28.13186678 -7 29 C-7 29.66 -7 30.32 -7 31 C-8.43701172 32.23681641 -8.43701172 32.23681641 -10.4296875 33.6015625 C-11.49896484 34.33632812 -11.49896484 34.33632812 -12.58984375 35.0859375 C-13.34394531 35.59382813 -14.09804687 36.10171875 -14.875 36.625 C-15.62136719 37.140625 -16.36773437 37.65625 -17.13671875 38.1875 C-22.734437 42 -22.734437 42 -25 42 C-25 42.66 -25 43.32 -25 44 C-26.53125 45.2890625 -26.53125 45.2890625 -28.5 46.625 C-29.1496875 47.07101563 -29.799375 47.51703125 -30.46875 47.9765625 C-30.9740625 48.31429687 -31.479375 48.65203125 -32 49 C-24.36002929 55.03652007 -16.64900449 61.0397972 -8.4453125 66.296875 C-7.85137695 66.68504395 -7.25744141 67.07321289 -6.64550781 67.47314453 C-4.95743526 68.57136934 -3.25634786 69.64951159 -1.5546875 70.7265625 C1 73 1 73 1.859375 75.79296875 C2.01887622 79.43048272 2.13224704 83.04586067 2.125 86.6875 C2.12886719 88.64236328 2.12886719 88.64236328 2.1328125 90.63671875 C2 94 2 94 1 97 C-1.16874252 96.49396008 -2.99967627 96.00016187 -5 95 C-5 94.34 -5 93.68 -5 93 C-5.69480469 92.76925781 -6.38960937 92.53851563 -7.10546875 92.30078125 C-10.59066913 90.7345576 -13.36095682 88.56649866 -16.3125 86.1875 C-20.03968674 83.23665615 -23.71783252 80.43486477 -27.8125 78 C-29.3903125 77.01 -29.3903125 77.01 -31 76 C-31 75.34 -31 74.68 -31 74 C-31.65871094 73.78601563 -32.31742188 73.57203125 -32.99609375 73.3515625 C-37.07778074 71.51506874 -40.47274532 69.02700942 -44.0625 66.375 C-44.76955078 65.87871094 -45.47660156 65.38242187 -46.20507812 64.87109375 C-51.04662933 61.29789258 -54.12524604 57.79068714 -56 52 C-56.20703125 49.35546875 -56.20703125 49.35546875 -55.8125 47.1875 C-55.69519531 46.45917969 -55.57789063 45.73085937 -55.45703125 44.98046875 C-55 43 -55 43 -54 40 C-53.34 40 -52.68 40 -52 40 C-52 39.34 -52 38.68 -52 38 C-51.34 38 -50.68 38 -50 38 C-50 37.34 -50 36.68 -50 36 C-48.50292969 34.71899414 -48.50292969 34.71899414 -46.421875 33.28515625 C-45.67292969 32.76373047 -44.92398438 32.24230469 -44.15234375 31.70507812 C-43.35957031 31.16302734 -42.56679687 30.62097656 -41.75 30.0625 C-40.20284299 28.99129262 -38.65595931 27.91969033 -37.109375 26.84765625 C-36.41811523 26.37336182 -35.72685547 25.89906738 -35.01464844 25.41040039 C-33.60282052 24.42201819 -32.22240109 23.38794808 -30.86816406 22.32202148 C-29 21 -29 21 -27 21 C-27 20.34 -27 19.68 -27 19 C-25.56298828 17.76318359 -25.56298828 17.76318359 -23.5703125 16.3984375 C-22.85746094 15.90859375 -22.14460938 15.41875 -21.41015625 14.9140625 C-20.65605469 14.40617188 -19.90195313 13.89828125 -19.125 13.375 C-18.37863281 12.859375 -17.63226563 12.34375 -16.86328125 11.8125 C-11.265563 8 -11.265563 8 -9 8 C-9 7.34 -9 6.68 -9 6 C-7.03125 4.4921875 -7.03125 4.4921875 -4.5 2.875 C-3.6646875 2.33617187 -2.829375 1.79734375 -1.96875 1.2421875 C-1.3190625 0.83226562 -0.669375 0.42234375 0 0 Z " fill="#0E1141" transform="translate(184,195)"/>
<path d="M0 0 C1.38155273 -0.04350586 1.38155273 -0.04350586 2.79101562 -0.08789062 C10.47836976 -0.15881724 15.61050891 1.63176327 21.5 6.5625 C29.20761824 15.72831629 30.4520059 23.44966547 29.8125 35.3125 C28.75480708 40.27552063 26.882324 44.70243746 24.8125 49.3125 C24.1525 49.3125 23.4925 49.3125 22.8125 49.3125 C22.8125 49.9725 22.8125 50.6325 22.8125 51.3125 C21.01953125 52.75 21.01953125 52.75 18.625 54.3125 C17.84769531 54.828125 17.07039063 55.34375 16.26953125 55.875 C8.72345913 60.28987208 0.34691109 60.50009881 -8.1875 59.3125 C-13.24631542 57.67237879 -18.67034043 55.85160385 -21.50390625 51.109375 C-21.72949219 50.51640625 -21.95507812 49.9234375 -22.1875 49.3125 C-22.8475 49.3125 -23.5075 49.3125 -24.1875 49.3125 C-30.2936744 38.32138609 -31.16223027 28.94994329 -27.75 16.9375 C-26.8255023 13.88810969 -25.98791447 12.0131217 -24.1875 9.3125 C-23.5275 9.3125 -22.8675 9.3125 -22.1875 9.3125 C-21.8575 8.3225 -21.5275 7.3325 -21.1875 6.3125 C-19.4453125 4.9609375 -19.4453125 4.9609375 -17.3125 3.6875 C-16.61382812 3.26210937 -15.91515625 2.83671875 -15.1953125 2.3984375 C-10.26601352 -0.26760358 -5.45954042 0.05612961 0 0 Z M-7.8125 16.6875 C-10.07749206 21.01157576 -10.40278519 24.21978468 -10.4375 29.0625 C-10.458125 29.76632813 -10.47875 30.47015625 -10.5 31.1953125 C-10.53541884 35.95914585 -9.82597695 39.19450326 -7.1875 43.3125 C-3.16285022 45.99559985 0.08542814 45.98901934 4.8125 45.3125 C7.96152162 43.2938964 8.6778264 41.64918399 10.0625 38.1875 C11.62054882 30.13758111 11.27711865 23.77475555 7.8125 16.3125 C5.23646088 13.73646088 4.02000718 13.9566389 0.4375 13.875 C-4.17319884 13.90155259 -4.17319884 13.90155259 -7.8125 16.6875 Z " fill="#0D0E3F" transform="translate(216.1875,215.6875)"/>
<path d="M0 0 C5.61 0 11.22 0 17 0 C17 26.73 17 53.46 17 81 C4 81 4 81 1 80 C0.67 79.01 0.34 78.02 0 77 C-1.485 77.99 -1.485 77.99 -3 79 C-3.66 78.01 -4.32 77.02 -5 76 C-5.66 76 -6.32 76 -7 76 C-6.7452486 74.68428397 -6.47065859 73.37239624 -6.1875 72.0625 C-6.03667969 71.33160156 -5.88585937 70.60070312 -5.73046875 69.84765625 C-5.48941406 69.23792969 -5.24835938 68.62820313 -5 68 C-3.515 67.505 -3.515 67.505 -2 67 C-1.67 57.1 -1.34 47.2 -1 37 C-1.99 37 -2.98 37 -4 37 C-4.99 36.67 -5.98 36.34 -7 36 C-7.6875 33.9375 -7.6875 33.9375 -8 32 C-6.68 32.33 -5.36 32.66 -4 33 C-4 32.34 -4 31.68 -4 31 C-4.66 31 -5.32 31 -6 31 C-5.67 30.34 -5.34 29.68 -5 29 C-4.34 29 -3.68 29 -3 29 C-2.01 28.67 -1.02 28.34 0 28 C0 18.76 0 9.52 0 0 Z " fill="#070939" transform="translate(288,192)"/>
<path d="M0 0 C2.24759973 1.12379987 3.96758368 2.49867855 5.9375 4.0625 C9.33578603 6.72367773 12.76474143 9.32866907 16.25 11.875 C17.16007812 12.54015625 18.07015625 13.2053125 19.0078125 13.890625 C21.16941973 15.41447344 23.33045169 16.87154349 25.5546875 18.296875 C26.14862305 18.68504395 26.74255859 19.07321289 27.35449219 19.47314453 C29.04256474 20.57136934 30.74365214 21.64951159 32.4453125 22.7265625 C35 25 35 25 35.859375 27.79296875 C36.01887622 31.43048272 36.13224704 35.04586067 36.125 38.6875 C36.12886719 40.64236328 36.12886719 40.64236328 36.1328125 42.63671875 C36 46 36 46 35 49 C32.83125748 48.49396008 31.00032373 48.00016187 29 47 C29 46.34 29 45.68 29 45 C28.30519531 44.76925781 27.61039063 44.53851563 26.89453125 44.30078125 C23.40933087 42.7345576 20.63904318 40.56649866 17.6875 38.1875 C13.96031326 35.23665615 10.28216748 32.43486477 6.1875 30 C5.135625 29.34 4.08375 28.68 3 28 C3 27.34 3 26.68 3 26 C2.34644531 25.79632813 1.69289062 25.59265625 1.01953125 25.3828125 C-3.20563066 23.44787419 -6.6433268 20.70147659 -10.3125 17.875 C-11.05306641 17.31167969 -11.79363281 16.74835938 -12.55664062 16.16796875 C-14.37501609 14.78365711 -16.18924674 13.39425774 -18 12 C-17.39551025 11.70867187 -16.79102051 11.41734375 -16.16821289 11.1171875 C-13.37132688 9.67607159 -10.96546599 7.87103877 -8.4375 6 C-5.65162338 3.94366773 -2.88140624 1.9209375 0 0 Z " fill="#53CFC4" transform="translate(150,243)"/>
<path d="M0 0 C0.78375 0.52851563 1.5675 1.05703125 2.375 1.6015625 C3.40238281 2.20871094 4.42976563 2.81585938 5.48828125 3.44140625 C6.54402344 4.13363281 7.59976563 4.82585937 8.6875 5.5390625 C10.29044922 6.57353516 10.29044922 6.57353516 11.92578125 7.62890625 C13.13814453 8.60537109 13.13814453 8.60537109 14.375 9.6015625 C14.375 10.5915625 14.375 11.5815625 14.375 12.6015625 C12.84619141 14.04370117 12.84619141 14.04370117 10.7265625 15.51953125 C9.96859375 16.05126953 9.210625 16.58300781 8.4296875 17.13085938 C7.22699219 17.95166992 7.22699219 17.95166992 6 18.7890625 C5.2059375 19.34787109 4.411875 19.90667969 3.59375 20.48242188 C-2.34103136 24.6015625 -2.34103136 24.6015625 -4.625 24.6015625 C-4.625 25.2615625 -4.625 25.9215625 -4.625 26.6015625 C-6.98873812 28.34933292 -9.35943212 29.98756322 -11.8125 31.6015625 C-17.9336361 35.69715653 -23.84050313 39.94842474 -29.54956055 44.60351562 C-33.30873474 47.6015625 -33.30873474 47.6015625 -36.625 47.6015625 C-39.13626701 27.5379879 -39.13626701 27.5379879 -35.34472656 21.59472656 C-31.77127218 18.17360416 -27.4230547 16.09962117 -23.02587891 13.91894531 C-17.83799609 11.07230959 -13.28778386 7.14591243 -8.65478516 3.4855957 C-3.32583199 -0.50481378 -3.32583199 -0.50481378 0 0 Z " fill="#52D0C4" transform="translate(351.625,244.3984375)"/>
<path d="M0 0 C2.75059381 -0.08107646 5.49879021 -0.14052813 8.25 -0.1875 C9.02730469 -0.21263672 9.80460938 -0.23777344 10.60546875 -0.26367188 C14.05113782 -0.30784712 16.38120649 -0.31571097 19.48828125 1.26953125 C21.95078652 4.08836803 22.22756632 7.38738466 22 11 C21.00585407 12.67016516 20.0064275 14.33720673 19 16 C19.87440797 20.19715824 21.78506874 23.37556703 24 27 C24 27.66 24 28.32 24 29 C20.87276503 29.49054666 18.10480755 29.69572611 15 29 C12.65111994 26.65111994 11.22835245 24.07396744 10 21 C10 20.34 10 19.68 10 19 C9.34 19 8.68 19 8 19 C8 22.3 8 25.6 8 29 C5.36 29 2.72 29 0 29 C-0.19747891 25.10460543 -0.38123029 21.20867984 -0.5625 17.3125 C-0.61857422 16.20970703 -0.67464844 15.10691406 -0.73242188 13.97070312 C-0.78076172 12.90400391 -0.82910156 11.83730469 -0.87890625 10.73828125 C-0.9260376 9.75899658 -0.97316895 8.77971191 -1.02172852 7.77075195 C-1.00032994 5.04207295 -0.62794508 2.64920937 0 0 Z M8 6 C8 8.31 8 10.62 8 13 C9.65 12.67 11.3 12.34 13 12 C13.6814823 10.10820797 13.6814823 10.10820797 14 8 C13.34 7.34 12.68 6.68 12 6 C10.68 6 9.36 6 8 6 Z " fill="#57CCC1" transform="translate(224,285)"/>
<path d="M0 0 C6.40987767 4.22680339 12.72664703 8.57329164 19 13 C15.14317729 17.0871917 11.00074977 20.35848492 6.4375 23.625 C5.12361934 24.57541221 3.80981504 25.52593001 2.49609375 26.4765625 C1.88491699 26.91387695 1.27374023 27.35119141 0.64404297 27.80175781 C-0.69158033 28.7752118 -1.99066659 29.79865059 -3.27734375 30.8359375 C-5 32 -5 32 -8 32 C-8.19533059 28.9378174 -8.38153284 25.87553679 -8.5625 22.8125 C-8.61857422 21.94818359 -8.67464844 21.08386719 -8.73242188 20.19335938 C-9.24252616 11.31754484 -9.24252616 11.31754484 -8 8 C-6.15234375 6.26953125 -6.15234375 6.26953125 -3.9375 4.8125 C-2.59509329 3.9183486 -1.2737993 2.98944319 0 2 C0 1.34 0 0.68 0 0 Z " fill="#4DCFC4" transform="translate(323,224)"/>
<path d="M0 0 C6.27 0 12.54 0 19 0 C19 1.98 19 3.96 19 6 C15.37 6 11.74 6 8 6 C8 7.65 8 9.3 8 11 C10.97 11 13.94 11 17 11 C17.04254356 12.99954746 17.04080783 15.00041636 17 17 C16 18 16 18 14.15234375 18.09765625 C12.1015625 18.06510417 10.05078125 18.03255208 8 18 C8 19.32 8 20.64 8 22 C9.0725 21.979375 10.145 21.95875 11.25 21.9375 C14.14790424 21.9857984 16.28612141 22.13155885 19 23 C19 24.98 19 26.96 19 29 C12.73 29 6.46 29 0 29 C0 19.43 0 9.86 0 0 Z " fill="#4BCFC4" transform="translate(198,285)"/>
<path d="M0 0 C-0.47416578 4.97874064 -1.9099331 8.06718758 -5 12 C-5.66 12 -6.32 12 -7 12 C-7.268125 12.721875 -7.53625 13.44375 -7.8125 14.1875 C-8.98982498 16.97590126 -10.39145884 19.44095724 -12 22 C-8.37 22.33 -4.74 22.66 -1 23 C-1 24.98 -1 26.96 -1 29 C-8.59 29 -16.18 29 -24 29 C-24 23.33236994 -24 23.33236994 -21.625 19.6875 C-21.18414062 18.99011719 -20.74328125 18.29273438 -20.2890625 17.57421875 C-19.86367188 17.05472656 -19.43828125 16.53523438 -19 16 C-18.34 16 -17.68 16 -17 16 C-16.5978125 14.88625 -16.5978125 14.88625 -16.1875 13.75 C-15 11 -15 11 -12 7 C-15.63 6.67 -19.26 6.34 -23 6 C-23 4.02 -23 2.04 -23 0 C-7.25512528 -1.33257403 -7.25512528 -1.33257403 0 0 Z " fill="#64CFC5" transform="translate(302,285)"/>
<path d="M0 0 C1.32547852 0.07831055 1.32547852 0.07831055 2.67773438 0.15820312 C4.84800408 0.28724619 7.01780693 0.42409956 9.1875 0.5625 C9.1875 2.5425 9.1875 4.5225 9.1875 6.5625 C6.5475 6.5625 3.9075 6.5625 1.1875 6.5625 C1.1875 14.1525 1.1875 21.7425 1.1875 29.5625 C-1.4525 29.5625 -4.0925 29.5625 -6.8125 29.5625 C-7.1425 22.3025 -7.4725 15.0425 -7.8125 7.5625 C-10.1225 7.2325 -12.4325 6.9025 -14.8125 6.5625 C-14.8125 4.5825 -14.8125 2.6025 -14.8125 0.5625 C-9.85765817 -0.82239368 -5.06660852 -0.32870615 0 0 Z " fill="#75CBC2" transform="translate(264.8125,284.4375)"/>
<path d="M0 0 C6.27 0 12.54 0 19 0 C19 27.39 19 54.78 19 83 C14.05 83 9.1 83 4 83 C3.505 82.01 3.505 82.01 3 81 C7.95 81.33 12.9 81.66 18 82 C18 55.27 18 28.54 18 1 C12.39 1 6.78 1 1 1 C1 10.24 1 19.48 1 29 C0.34 29.33 -0.32 29.66 -1 30 C-1.33 30.99 -1.66 31.98 -2 33 C-2 32.34 -2 31.68 -2 31 C-2.33 31.33 -2.66 31.66 -3 32 C-3 32.66 -3 33.32 -3 34 C-3.99 34 -4.98 34 -6 34 C-6 34.99 -6 35.98 -6 37 C-5.34 37.33 -4.68 37.66 -4 38 C-6.64 38 -9.28 38 -12 38 C-12.69965443 36.73581754 -13.38434763 35.46334598 -14.0625 34.1875 C-14.44535156 33.47980469 -14.82820313 32.77210938 -15.22265625 32.04296875 C-16 30 -16 30 -15 27 C-13 25 -13 25 -10.9765625 24.734375 C-9.81253906 24.74210937 -9.81253906 24.74210937 -8.625 24.75 C-7.85414063 24.74484375 -7.08328125 24.7396875 -6.2890625 24.734375 C-4 25 -4 25 0 27 C0 18.09 0 9.18 0 0 Z " fill="#505070" transform="translate(287,191)"/>
<path d="M0 0 C0.66 0 1.32 0 2 0 C2.33 2.31 2.66 4.62 3 7 C6.96 7 10.92 7 15 7 C15 8.98 15 10.96 15 13 C7.41 13 -0.18 13 -8 13 C-8 11.35 -8 9.7 -8 8 C-4.125 6 -4.125 6 -3 6 C-2.690625 5.195625 -2.38125 4.39125 -2.0625 3.5625 C-1 1 -1 1 0 0 Z " fill="#5AC7BD" transform="translate(286,301)"/>
<path d="M0 0 C0 1.98 0 3.96 0 6 C-3.63 6 -7.26 6 -11 6 C-10.67 8.31 -10.34 10.62 -10 13 C-8.02 13 -6.04 13 -4 13 C-4 13.99 -4 14.98 -4 16 C-7.375 15.75 -7.375 15.75 -11 15 C-12.4375 12.9375 -12.4375 12.9375 -13 11 C-14.32 11 -15.64 11 -17 11 C-17 7.7 -17 4.4 -17 1 C-11.33357449 -0.22517308 -5.76291482 -0.09228867 0 0 Z " fill="#50CEC2" transform="translate(217,285)"/>
<path d="M0 0 C0.33 0.66 0.66 1.32 1 2 C2.2375 1.95875 3.475 1.9175 4.75 1.875 C8.01637962 1.86341709 10.2146947 2.1431298 13 4 C12.34 4 11.68 4 11 4 C10.13888484 7.02769315 9.81769107 9.84266637 9.68359375 12.984375 C9.64169922 13.91894531 9.59980469 14.85351562 9.55664062 15.81640625 C9.49766602 17.26853516 9.49766602 17.26853516 9.4375 18.75 C9.39431641 19.73355469 9.35113281 20.71710938 9.30664062 21.73046875 C9.20077948 24.15351275 9.09869829 26.5766554 9 29 C7.68 29 6.36 29 5 29 C5 21.74 5 14.48 5 7 C2.36 6.34 -0.28 5.68 -3 5 C-3 4.01 -3 3.02 -3 2 C-2.01 2 -1.02 2 0 2 C0 1.34 0 0.68 0 0 Z " fill="#4DCFC4" transform="translate(255,284)"/>
<path d="M0 0 C0.66 0.33 1.32 0.66 2 1 C2 8.26 2 15.52 2 23 C0.68 23.33 -0.64 23.66 -2 24 C-3.73026102 25.47890069 -3.73026102 25.47890069 -5 27 C-5.66 26.67 -6.32 26.34 -7 26 C-5 23 -5 23 -2 21 C-1.41312216 17.65386488 -1.41312216 17.65386488 -1.3125 13.875 C-1.24675781 12.59367188 -1.18101562 11.31234375 -1.11328125 9.9921875 C-1.07589844 9.00476563 -1.03851563 8.01734375 -1 7 C-1.99 7 -2.98 7 -4 7 C-4.33 8.32 -4.66 9.64 -5 11 C-5.66 10.67 -6.32 10.34 -7 10 C-6.34 8.35 -5.68 6.7 -5 5 C-4.34 5 -3.68 5 -3 5 C-2.814375 4.0409375 -2.814375 4.0409375 -2.625 3.0625 C-2.41875 2.381875 -2.2125 1.70125 -2 1 C-1.34 0.67 -0.68 0.34 0 0 Z " fill="#2F2F4D" transform="translate(184,195)"/>
<path d="M0 0 C1.65 1.32 3.3 2.64 5 4 C3.68 4 2.36 4 1 4 C0.7525 4.598125 0.505 5.19625 0.25 5.8125 C-1 8 -1 8 -3.03125 9.09375 C-6.15151794 12.11496182 -5.67463055 15.51134705 -5.75 19.6875 C-5.77964844 20.48478516 -5.80929687 21.28207031 -5.83984375 22.10351562 C-5.91044082 24.06846749 -5.95749708 26.03423977 -6 28 C-4.68 28.66 -3.36 29.32 -2 30 C-5 32 -5 32 -8 32 C-8.19533059 28.9378174 -8.38153284 25.87553679 -8.5625 22.8125 C-8.61857422 21.94818359 -8.67464844 21.08386719 -8.73242188 20.19335938 C-9.24252616 11.31754484 -9.24252616 11.31754484 -8 8 C-6.15234375 6.26953125 -6.15234375 6.26953125 -3.9375 4.8125 C-2.59509329 3.9183486 -1.2737993 2.98944319 0 2 C0 1.34 0 0.68 0 0 Z " fill="#72C2BA" transform="translate(323,224)"/>
<path d="M0 0 C1.79093191 -0.08086147 3.58289628 -0.13912702 5.375 -0.1875 C6.87160156 -0.23970703 6.87160156 -0.23970703 8.3984375 -0.29296875 C9.25695312 -0.19628906 10.11546875 -0.09960938 11 0 C11.66 0.99 12.32 1.98 13 3 C12.67 4.32 12.34 5.64 12 7 C8.04 6.67 4.08 6.34 0 6 C0 4.02 0 2.04 0 0 Z " fill="#5BC3BB" transform="translate(279,285)"/>
<path d="M0 0 C3.12461161 -0.2130417 5.41445453 -0.25320885 8.3125 1 C10.92582638 4.09727571 10.73785587 7.00230208 11 11 C10 9 9 7 8 5 C7.01 5 6.02 5 5 5 C4.67 6.32 4.34 7.64 4 9 C4.66 9.33 5.32 9.66 6 10 C4.02 10.99 4.02 10.99 2 12 C1.9175 11.21625 1.835 10.4325 1.75 9.625 C1.27193661 6.85250896 1.27193661 6.85250896 -1.0625 5.6875 C-1.701875 5.460625 -2.34125 5.23375 -3 5 C-2.34 4.34 -1.68 3.68 -1 3 C-0.67 2.01 -0.34 1.02 0 0 Z " fill="#72D0C9" transform="translate(235,285)"/>
<path d="M0 0 C2.64 0 5.28 0 8 0 C8 0.33 8 0.66 8 1 C6.02 1 4.04 1 2 1 C2.24556641 2.40958984 2.24556641 2.40958984 2.49609375 3.84765625 C3.19019649 8.7063754 3.10834309 13.53934211 3.0625 18.4375 C3.05798828 19.35982422 3.05347656 20.28214844 3.04882812 21.23242188 C3.03713938 23.48835048 3.02075455 25.74413967 3 28 C2.01 28.33 1.02 28.66 0 29 C0 19.43 0 9.86 0 0 Z " fill="#75D0C7" transform="translate(198,285)"/>
<path d="M0 0 C3.63 0 7.26 0 11 0 C11 1.65 11 3.3 11 5 C9.35 5.33 7.7 5.66 6 6 C5.67 6.99 5.34 7.98 5 9 C4.34 8.67 3.68 8.34 3 8 C3.33 7.34 3.66 6.68 4 6 C2.68 5.67 1.36 5.34 0 5 C0 3.35 0 1.7 0 0 Z " fill="#56C6BC" transform="translate(224,285)"/>
<path d="M0 0 C1.83863505 1.11631414 3.67079723 2.24329627 5.5 3.375 C6.5209375 4.00148437 7.541875 4.62796875 8.59375 5.2734375 C9.3878125 5.84320313 10.181875 6.41296875 11 7 C11 7.66 11 8.32 11 9 C11.66 9 12.32 9 13 9 C13 9.66 13 10.32 13 11 C13.66 11 14.32 11 15 11 C15 12.98 15 14.96 15 17 C13.1875 16.875 13.1875 16.875 11 16 C9.04679411 12.79116175 8 10.7794561 8 7 C7.13375 6.814375 7.13375 6.814375 6.25 6.625 C3.97664233 5.99351176 2.0746471 5.11141809 0 4 C0 2.68 0 1.36 0 0 Z " fill="#1F2044" transform="translate(355,224)"/>
<path d="M0 0 C-0.33 1.98 -0.66 3.96 -1 6 C-1.66 6 -2.32 6 -3 6 C-3.12375 6.61875 -3.2475 7.2375 -3.375 7.875 C-4 10 -4 10 -6 12 C-6.99 12 -7.98 12 -9 12 C-9 13.32 -9 14.64 -9 16 C-9.66 16 -10.32 16 -11 16 C-11.33 16.99 -11.66 17.98 -12 19 C-11.60643703 12.8341801 -9.61731298 8.0310876 -6 3 C-2.52876106 0 -2.52876106 0 0 0 Z " fill="#3D3E5E" transform="translate(263,219)"/>
<path d="M0 0 C0.5534764 2.07553648 1 3.84365964 1 6 C2.32 6 3.64 6 5 6 C3.8141763 9.37503669 2.72426311 11.64722731 0 14 C-0.33 12.02 -0.66 10.04 -1 8 C-3.79872437 10.52788007 -5.45773019 12.20411134 -6 16 C-6.33 15.34 -6.66 14.68 -7 14 C-7.66 13.67 -8.32 13.34 -9 13 C-7.625 10.5 -7.625 10.5 -6 8 C-5.34 8 -4.68 8 -4 8 C-3.566875 6.8553125 -3.566875 6.8553125 -3.125 5.6875 C-2 3 -2 3 0 0 Z " fill="#7DD2C9" transform="translate(289,293)"/>
<path d="M0 0 C2.64 0 5.28 0 8 0 C8.04254356 1.99954746 8.04080783 4.00041636 8 6 C7 7 7 7 5.15234375 7.09765625 C3.1015625 7.06510417 1.05078125 7.03255208 -1 7 C-1 8.32 -1 9.64 -1 11 C1.31 11 3.62 11 6 11 C6 11.33 6 11.66 6 12 C2.7 12 -0.6 12 -4 12 C-4 10.68 -4 9.36 -4 8 C-3.34 8 -2.68 8 -2 8 C-1.67 6.68 -1.34 5.36 -1 4 C1.31 4.33 3.62 4.66 6 5 C6 4.01 6 3.02 6 2 C4.02 2 2.04 2 0 2 C0 1.34 0 0.68 0 0 Z " fill="#7ECAC3" transform="translate(207,296)"/>
<path d="M0 0 C5.94 0 11.88 0 18 0 C18 1.98 18 3.96 18 6 C15.03 6 12.06 6 9 6 C9.33 5.01 9.66 4.02 10 3 C6.7 2.34 3.4 1.68 0 1 C0 0.67 0 0.34 0 0 Z " fill="#63C4BA" transform="translate(256,285)"/>
<path d="M0 0 C0 0.66 0 1.32 0 2 C-0.62003906 2.23589844 -1.24007812 2.47179687 -1.87890625 2.71484375 C-4.57103581 4.34598671 -4.91622598 5.63045523 -5.9375 8.5625 C-6.91796875 11 -6.91796875 11 -8 13 C-10.75 14.0625 -10.75 14.0625 -13 14 C-13.33 15.32 -13.66 16.64 -14 18 C-15 15 -15 15 -14.22265625 12.95703125 C-13.83980469 12.24933594 -13.45695313 11.54164063 -13.0625 10.8125 C-12.68222656 10.09707031 -12.30195313 9.38164062 -11.91015625 8.64453125 C-11.45962891 7.83048828 -11.45962891 7.83048828 -11 7 C-10.34 7 -9.68 7 -9 7 C-8.67 6.01 -8.34 5.02 -8 4 C-2.62857143 0 -2.62857143 0 0 0 Z " fill="#4B4A69" transform="translate(203,218)"/>
<path d="M0 0 C0.66 0 1.32 0 2 0 C2 3.63 2 7.26 2 11 C-0.64 11 -3.28 11 -6 11 C-6 8.36 -6 5.72 -6 3 C-5.34 3 -4.68 3 -4 3 C-3.67 3.99 -3.34 4.98 -3 6 C-2.34 6.33 -1.68 6.66 -1 7 C-0.67 4.69 -0.34 2.38 0 0 Z " fill="#70CFC8" transform="translate(230,303)"/>
<path d="M0 0 C0.66 0 1.32 0 2 0 C2.03738281 1.27617187 2.07476562 2.55234375 2.11328125 3.8671875 C2.17892791 5.53648838 2.2453757 7.20575789 2.3125 8.875 C2.33505859 9.71675781 2.35761719 10.55851562 2.38085938 11.42578125 C2.41630859 12.23144531 2.45175781 13.03710938 2.48828125 13.8671875 C2.51446533 14.61081543 2.54064941 15.35444336 2.56762695 16.12060547 C2.86729591 18.40733826 2.86729591 18.40733826 6 20 C3 22 3 22 0 22 C0 14.74 0 7.48 0 0 Z " fill="#6CC2B9" transform="translate(315,270)"/>
<path d="M0 0 C0.66 0.33 1.32 0.66 2 1 C-1.07610988 7.15221976 -5.53259425 9.61592008 -11.875 11.75 C-13.2472278 12.17570763 -14.62134409 12.59559427 -16 13 C-14.71034824 11.62437146 -13.37310707 10.29233607 -12 9 C-11.34 9 -10.68 9 -10 9 C-10 8.34 -10 7.68 -10 7 C-7.8125 5.2734375 -7.8125 5.2734375 -5 3.375 C-4.071875 2.74335938 -3.14375 2.11171875 -2.1875 1.4609375 C-1.1046875 0.73777344 -1.1046875 0.73777344 0 0 Z " fill="#555572" transform="translate(167,207)"/>
<path d="M0 0 C3.63 0 7.26 0 11 0 C11 1.98 11 3.96 11 6 C5.06 6 -0.88 6 -7 6 C-7 5.67 -7 5.34 -7 5 C-1.72 5 3.56 5 9 5 C9 4.01 9 3.02 9 2 C6.03 2 3.06 2 0 2 C0 1.34 0 0.68 0 0 Z " fill="#61BCB4" transform="translate(206,308)"/>
<path d="M0 0 C0.66 0.33 1.32 0.66 2 1 C2.33 1.99 2.66 2.98 3 4 C5.01508358 4.73323796 5.01508358 4.73323796 7 5 C7 5.66 7 6.32 7 7 C12.28 7 17.56 7 23 7 C23 7.33 23 7.66 23 8 C4.65957447 8.95744681 4.65957447 8.95744681 -4 3 C-2.68 2.01 -1.36 1.02 0 0 Z " fill="#525470" transform="translate(202,267)"/>
<path d="M0 0 C1.258125 0.09023437 2.51625 0.18046875 3.8125 0.2734375 C7 0.625 7 0.625 9 1.625 C9 2.285 9 2.945 9 3.625 C9.66 3.955 10.32 4.285 11 4.625 C10.01 6.11 10.01 6.11 9 7.625 C8.731875 6.8 8.46375 5.975 8.1875 5.125 C6.26399421 2.407452 6.26399421 2.407452 3.4921875 2.15234375 C-2.50847313 1.93887102 -2.50847313 1.93887102 -7.6875 4.625 C-8.120625 5.285 -8.55375 5.945 -9 6.625 C-9 5.965 -9 5.305 -9 4.625 C-9.66 4.625 -10.32 4.625 -11 4.625 C-8.41641302 -1.09579975 -6.0215669 -0.45655323 0 0 Z " fill="#5B5C7A" transform="translate(216,228.375)"/>
<path d="M0 0 C0.66 0 1.32 0 2 0 C2 0.66 2 1.32 2 2 C2.66 2.33 3.32 2.66 4 3 C4.12375 3.804375 4.2475 4.60875 4.375 5.4375 C4.684375 6.7059375 4.684375 6.7059375 5 8 C6.32467746 8.6837045 7.65863633 9.34964186 9 10 C10.25 12.625 10.25 12.625 11 15 C6.10948813 13.18869931 3.3001559 9.16692651 0.6875 4.8125 C0 3 0 3 0 0 Z " fill="#393D5B" transform="translate(252,258)"/>
<path d="M0 0 C1.98 0.495 1.98 0.495 4 1 C4.33 2.98 4.66 4.96 5 7 C3.02 6.34 1.04 5.68 -1 5 C-0.67 3.35 -0.34 1.7 0 0 Z M0 6 C0.33 6 0.66 6 1 6 C1 7.65 1 9.3 1 11 C0.01 10.67 -0.98 10.34 -2 10 C-1.34 8.68 -0.68 7.36 0 6 Z " fill="#4ECCC2" transform="translate(240,289)"/>
<path d="M0 0 C3.63 0 7.26 0 11 0 C11 1.98 11 3.96 11 6 C7.04 6 3.08 6 -1 6 C-0.34 5.01 0.32 4.02 1 3 C3.64 3.33 6.28 3.66 9 4 C9 3.01 9 2.02 9 1 C6.03 1 3.06 1 0 1 C0 0.67 0 0.34 0 0 Z " fill="#5FB7B0" transform="translate(206,285)"/>
<path d="M0 0 C0.99 0 1.98 0 3 0 C3 4.62 3 9.24 3 14 C2.01 14 1.02 14 0 14 C-0.19627391 12.41773035 -0.38165538 10.83410729 -0.5625 9.25 C-0.66691406 8.36828125 -0.77132812 7.4865625 -0.87890625 6.578125 C-0.99456676 4.11567549 -0.73638695 2.33461936 0 0 Z " fill="#413F5B" transform="translate(187,238)"/>
<path d="M0 0 C2 3.75 2 3.75 2 6 C2.99 6.33 3.98 6.66 5 7 C5 7.66 5 8.32 5 9 C5.66 9 6.32 9 7 9 C6.67 9.66 6.34 10.32 6 11 C2.37 8.36 -1.26 5.72 -5 3 C-3.68 2.34 -2.36 1.68 -1 1 C-0.67 0.67 -0.34 0.34 0 0 Z " fill="#7BCBC7" transform="translate(137,252)"/>
<path d="M0 0 C1.32 0 2.64 0 4 0 C3.1875 1.9375 3.1875 1.9375 2 4 C1.01 4.33 0.02 4.66 -1 5 C-1 5.99 -1 6.98 -1 8 C-1.66 8 -2.32 8 -3 8 C-3.33 6.02 -3.66 4.04 -4 2 C-2.68 2 -1.36 2 0 2 C0 1.34 0 0.68 0 0 Z " fill="#47D1C6" transform="translate(142,250)"/>
<path d="M0 0 C0.66 0.33 1.32 0.66 2 1 C1.45276317 4.37462715 0.9451 6.08235 -1 9 C-1.66 9 -2.32 9 -3 9 C-3 10.65 -3 12.3 -3 14 C-3.33 14 -3.66 14 -4 14 C-3.85831863 12.56208484 -3.71148957 11.1246763 -3.5625 9.6875 C-3.48128906 8.88699219 -3.40007812 8.08648437 -3.31640625 7.26171875 C-3 5 -3 5 -2 2 C-1.34 2 -0.68 2 0 2 C0 1.34 0 0.68 0 0 Z " fill="#656780" transform="translate(132,233)"/>
<path d="M0 0 C3.63 2.31 7.26 4.62 11 7 C10 9 10 9 8 10 C8 9.01 8 8.02 8 7 C7.13375 6.814375 7.13375 6.814375 6.25 6.625 C3.97664233 5.99351176 2.0746471 5.11141809 0 4 C0 2.68 0 1.36 0 0 Z " fill="#434462" transform="translate(355,224)"/>
<path d="M0 0 C4.93054827 2.71683272 9.46284362 5.66657898 14 9 C12.02 9.99 12.02 9.99 10 11 C9.21625 10.195625 8.4325 9.39125 7.625 8.5625 C5.28017144 6.01309583 5.28017144 6.01309583 3 5 C3 4.34 3 3.68 3 3 C2.01 2.67 1.02 2.34 0 2 C0 1.34 0 0.68 0 0 Z " fill="#59B5BA" transform="translate(328,228)"/>
<path d="M0 0 C2.97 0 5.94 0 9 0 C9 0.33 9 0.66 9 1 C6.36 1 3.72 1 1 1 C1 2.32 1 3.64 1 5 C3.31 5 5.62 5 8 5 C8 5.33 8 5.66 8 6 C4.7 6 1.4 6 -2 6 C-2 4.68 -2 3.36 -2 2 C-1.34 2 -0.68 2 0 2 C0 1.34 0 0.68 0 0 Z " fill="#AAE5E1" transform="translate(205,302)"/>
<path d="M0 0 C-3.3 2.31 -6.6 4.62 -10 7 C-10.33 6.01 -10.66 5.02 -11 4 C-7.39482939 0.00856111 -5.29679003 -1.76559668 0 0 Z " fill="#79D2C9" transform="translate(363,259)"/>
<path d="M0 0 C4.455 2.97 4.455 2.97 9 6 C8.01 7.485 8.01 7.485 7 9 C5.68 8.67 4.36 8.34 3 8 C3 6.35 3 4.7 3 3 C2.01 2.67 1.02 2.34 0 2 C0 1.34 0 0.68 0 0 Z " fill="#64BCBC" transform="translate(358,249)"/>
<path d="M0 0 C0.99 0.33 1.98 0.66 3 1 C-0.96 3.97 -4.92 6.94 -9 10 C-9.33 8.68 -9.66 7.36 -10 6 C-8.35 5.67 -6.7 5.34 -5 5 C-5 4.34 -5 3.68 -5 3 C-4.01 3 -3.02 3 -2 3 C-2 2.34 -2 1.68 -2 1 C-1.34 0.67 -0.68 0.34 0 0 Z " fill="#83D3CA" transform="translate(338,238)"/>
<path d="M0 0 C0.94875 0.350625 1.8975 0.70125 2.875 1.0625 C5.87060172 2.35026777 5.87060172 2.35026777 8 1 C8.99 3.31 9.98 5.62 11 8 C8.0280615 6.87548273 5.66559313 5.77706209 3 4 C3 3.34 3 2.68 3 2 C2.01 1.67 1.02 1.34 0 1 C0 0.67 0 0.34 0 0 Z " fill="#79D5CB" transform="translate(150,267)"/>
<path d="M0 0 C0.66 0 1.32 0 2 0 C1.125 4.75 1.125 4.75 0 7 C-0.66 7 -1.32 7 -2 7 C-2 7.66 -2 8.32 -2 9 C-3.98 9.99 -3.98 9.99 -6 11 C-6 10.01 -6 9.02 -6 8 C-5.34 8 -4.68 8 -4 8 C-4 7.01 -4 6.02 -4 5 C-2.68 4.67 -1.36 4.34 0 4 C0 2.68 0 1.36 0 0 Z " fill="#4D4E67" transform="translate(241,258)"/>
<path d="M0 0 C0.33 0 0.66 0 1 0 C1 5.61 1 11.22 1 17 C2.32 17.66 3.64 18.32 5 19 C3.02 19.99 3.02 19.99 1 21 C-0.17426264 18.65147472 -0.11508173 17.26225935 -0.09765625 14.6484375 C-0.09443359 13.79765625 -0.09121094 12.946875 -0.08789062 12.0703125 C-0.07951172 11.18085938 -0.07113281 10.29140625 -0.0625 9.375 C-0.05798828 8.4778125 -0.05347656 7.580625 -0.04882812 6.65625 C-0.03702591 4.43743352 -0.02056155 2.21874982 0 0 Z " fill="#6ACFC8" transform="translate(316,235)"/>
<path d="M0 0 C0.99 0 1.98 0 3 0 C1.84826645 2.46800047 0.95216435 4.04783565 -1 6 C-1 5.34 -1 4.68 -1 4 C-3.475 5.485 -3.475 5.485 -6 7 C-5.67 5.35 -5.34 3.7 -5 2 C-4.01 1.67 -3.02 1.34 -2 1 C-1.34 1.33 -0.68 1.66 0 2 C0 1.34 0 0.68 0 0 Z " fill="#080837" transform="translate(268,217)"/>
<path d="M0 0 C1.65 0.33 3.3 0.66 5 1 C4.67 2.65 4.34 4.3 4 6 C2.68 6.33 1.36 6.66 0 7 C-1.04449911 3.86650268 -0.93423645 3.01031744 0 0 Z " fill="#49CEBF" transform="translate(290,293)"/>
<path d="M0 0 C0.33 0.66 0.66 1.32 1 2 C1.99 1.67 2.98 1.34 4 1 C4.66 1.99 5.32 2.98 6 4 C5.01 4.33 4.02 4.66 3 5 C2.67 5.66 2.34 6.32 2 7 C0.68 5.68 -0.64 4.36 -2 3 C-1.34 2.01 -0.68 1.02 0 0 Z " fill="#050635" transform="translate(226,257)"/>
<path d="M0 0 C0.33 0.66 0.66 1.32 1 2 C-0.4375 4.625 -0.4375 4.625 -2 7 C-5.37503669 5.8141763 -7.64722731 4.72426311 -10 2 C-8.35 2 -6.7 2 -5 2 C-5 2.66 -5 3.32 -5 4 C-1.72226496 3.24849977 -1.72226496 3.24849977 0 0 Z " fill="#32405E" transform="translate(370,248)"/>
<path d="M0 0 C0.99 0.33 1.98 0.66 3 1 C3.12375 1.969375 3.2475 2.93875 3.375 3.9375 C3.684375 5.4534375 3.684375 5.4534375 4 7 C4.66 7.33 5.32 7.66 6 8 C6 8.99 6 9.98 6 11 C5.34 11 4.68 11 4 11 C3.32591692 9.73308493 2.66099503 8.46129251 2 7.1875 C1.62875 6.47980469 1.2575 5.77210938 0.875 5.04296875 C0 3 0 3 0 0 Z " fill="#4F4F6A" transform="translate(188,254)"/>
<path d="M0 0 C4 4.75 4 4.75 4 7 C1.03 7 -1.94 7 -5 7 C-5.33 6.34 -5.66 5.68 -6 5 C-4.02 5 -2.04 5 0 5 C0 3.35 0 1.7 0 0 Z " fill="#84D2CA" transform="translate(244,307)"/>
<path d="M0 0 C2.64 0 5.28 0 8 0 C5.88229834 2.32947183 3.96664412 3.88750845 1 5 C0.01 4.67 -0.98 4.34 -2 4 C-1.34 4 -0.68 4 0 4 C0 2.68 0 1.36 0 0 Z " fill="#424168" transform="translate(227,269)"/>
<path d="M0 0 C1.65 1.32 3.3 2.64 5 4 C3.68 4 2.36 4 1 4 C0.67 4.99 0.34 5.98 0 7 C-1.65 7 -3.3 7 -5 7 C-4.175 6.21625 -3.35 5.4325 -2.5 4.625 C0.22988506 2.36278736 0.22988506 2.36278736 0 0 Z " fill="#7EC9C8" transform="translate(323,224)"/>
<path d="M0 0 C0.66 0.33 1.32 0.66 2 1 C2 3.31 2 5.62 2 8 C1.34 8 0.68 8 0 8 C0 7.01 0 6.02 0 5 C-0.66 5 -1.32 5 -2 5 C-2 3.68 -2 2.36 -2 1 C-1.34 0.67 -0.68 0.34 0 0 Z " fill="#070533" transform="translate(131,241)"/>
<path d="M0 0 C0.66 0.99 1.32 1.98 2 3 C1.01 4.485 1.01 4.485 0 6 C-2.625 6.1875 -2.625 6.1875 -5 6 C-3.63016497 2.83884224 -3.0109362 2.0072908 0 0 Z " fill="#49D2C6" transform="translate(285,306)"/>
<path d="M0 0 C1.32 0.33 2.64 0.66 4 1 C3.43628586 4.26954202 2.50037734 5.82575883 0 8 C0 5.36 0 2.72 0 0 Z " fill="#6CD2C8" transform="translate(241,295)"/>
<path d="M0 0 C0.99 0.99 1.98 1.98 3 3 C2.67 3.66 2.34 4.32 2 5 C-3.94 4.01 -3.94 4.01 -10 3 C-10 2.67 -10 2.34 -10 2 C-9.04287109 1.90912109 -9.04287109 1.90912109 -8.06640625 1.81640625 C-6.82697266 1.69072266 -6.82697266 1.69072266 -5.5625 1.5625 C-4.73878906 1.48128906 -3.91507812 1.40007812 -3.06640625 1.31640625 C-1.01337975 1.21069185 -1.01337975 1.21069185 0 0 Z " fill="#767698" transform="translate(285,227)"/>
<path d="M0 0 C0.66 0.66 1.32 1.32 2 2 C-0.25 4.0625 -0.25 4.0625 -3 6 C-4.32 5.67 -5.64 5.34 -7 5 C-4.69 3.35 -2.38 1.7 0 0 Z " fill="#424162" transform="translate(150,220)"/>
<path d="M0 0 C-3.4019487 2.09350689 -6.05272412 2.17942163 -10 2 C-10 2.66 -10 3.32 -10 4 C-11.65 4 -13.3 4 -15 4 C-13.17215282 1.6644175 -12.11699486 1.02859874 -9.1875 0.3125 C-6.09864317 0.0096709 -3.10132945 -0.07384118 0 0 Z " fill="#676884" transform="translate(278,215)"/>
<path d="M0 0 C0.33 0.66 0.66 1.32 1 2 C0.525625 2.45375 0.05125 2.9075 -0.4375 3.375 C-2.09027808 4.93258204 -2.09027808 4.93258204 -3 7 C-2.34 7.33 -1.68 7.66 -1 8 C-1.99 8 -2.98 8 -4 8 C-4 7.34 -4 6.68 -4 6 C-5.32 6.33 -6.64 6.66 -8 7 C-7.67 6.34 -7.34 5.68 -7 5 C-6.34 5 -5.68 5 -5 5 C-5 4.34 -5 3.68 -5 3 C-2.5 1.375 -2.5 1.375 0 0 Z " fill="#5B5C78" transform="translate(180,198)"/>
<path d="M0 0 C1.65 0 3.3 0 5 0 C4.01 0.33 3.02 0.66 2 1 C2 1.99 2 2.98 2 4 C3.98 4 5.96 4 8 4 C8 4.33 8 4.66 8 5 C5.36 5.33 2.72 5.66 0 6 C0 4.02 0 2.04 0 0 Z " fill="#75CABF" transform="translate(250,285)"/>
<path d="M0 0 C0 0.66 0 1.32 0 2 C-0.66 2 -1.32 2 -2 2 C-2.66 3.65 -3.32 5.3 -4 7 C-4.66 6.67 -5.32 6.34 -6 6 C-5.67 4.35 -5.34 2.7 -5 1 C-2 0 -2 0 0 0 Z " fill="#4CD0C5" transform="translate(233,287)"/>
<path d="M0 0 C2 2 2 2 2.375 4.4375 C2 7 2 7 0 8.8125 C-0.66 9.204375 -1.32 9.59625 -2 10 C-2.66 9.67 -3.32 9.34 -4 9 C-3.2884375 7.88625 -3.2884375 7.88625 -2.5625 6.75 C-1.22130673 4.38949985 -0.487688 2.63351523 0 0 Z " fill="#727089" transform="translate(226,250)"/>
<path d="M0 0 C-0.639375 0.28875 -1.27875 0.5775 -1.9375 0.875 C-4.15206079 1.82823451 -4.15206079 1.82823451 -5 4 C-5 3.34 -5 2.68 -5 2 C-6.32 1.67 -7.64 1.34 -9 1 C-5.57367167 -0.61798838 -3.61944899 -1.34053666 0 0 Z " fill="#72CEC9" transform="translate(298,285)"/>
<path d="M0 0 C2 3 2 3 2.4375 5.125 C2.7159375 6.053125 2.7159375 6.053125 3 7 C3.99 7.33 4.98 7.66 6 8 C5.34 8.66 4.68 9.32 4 10 C4 9.34 4 8.68 4 8 C2.68 7.67 1.36 7.34 0 7 C0 4.69 0 2.38 0 0 Z " fill="#6C6B81" transform="translate(269,252)"/>
<path d="M0 0 C1.11375 0.598125 2.2275 1.19625 3.375 1.8125 C4.00148438 2.14894531 4.62796875 2.48539063 5.2734375 2.83203125 C7 4 7 4 9 7 C8.01 7.495 8.01 7.495 7 8 C6.34 7.34 5.68 6.68 5 6 C4.01 5.67 3.02 5.34 2 5 C2 4.01 2 3.02 2 2 C1.34 2 0.68 2 0 2 C0 1.34 0 0.68 0 0 Z " fill="#5B5B76" transform="translate(322,200)"/>
<path d="M0 0 C0.66 0 1.32 0 2 0 C2 0.66 2 1.32 2 2 C2.66 2.33 3.32 2.66 4 3 C4 4.98 4 6.96 4 9 C1.49701566 6.06171403 0.53069061 3.82097239 0 0 Z " fill="#505269" transform="translate(252,258)"/>
<path d="M0 0 C0.99 0.33 1.98 0.66 3 1 C2.67 5.29 2.34 9.58 2 14 C1.67 14 1.34 14 1 14 C0.67 9.38 0.34 4.76 0 0 Z " fill="#4D4D6B" transform="translate(226,236)"/>
<path d="M0 0 C3.2542015 2.83430453 4.5206753 4.68607774 5 9 C4.01 9.495 4.01 9.495 3 10 C2.67 8.35 2.34 6.7 2 5 C1.01 4.67 0.02 4.34 -1 4 C-0.67 2.68 -0.34 1.36 0 0 Z " fill="#4B4C66" transform="translate(239,225)"/>
<path d="M0 0 C4.875 1.75 4.875 1.75 6 4 C5.34 4 4.68 4 4 4 C3.67 4.66 3.34 5.32 3 6 C2.34 6 1.68 6 1 6 C1 5.34 1 4.68 1 4 C0.34 3.67 -0.32 3.34 -1 3 C-0.67 2.01 -0.34 1.02 0 0 Z " fill="#414262" transform="translate(331,207)"/>
<path d="M0 0 C0.68707555 2.49064888 1 4.37886292 1 7 C-0.32 7.33 -1.64 7.66 -3 8 C-2.45276317 4.62537285 -1.9451 2.91765 0 0 Z " fill="#6ACCBF" transform="translate(289,293)"/>
<path d="M0 0 C2.475 0.99 2.475 0.99 5 2 C5 2.99 5 3.98 5 5 C4.01 4.67 3.02 4.34 2 4 C1.01 4.33 0.02 4.66 -1 5 C-0.67 3.35 -0.34 1.7 0 0 Z " fill="#76D6CA" transform="translate(155,248)"/>
<path d="M0 0 C3.465 1.98 3.465 1.98 7 4 C4 6 4 6 2 6 C1.34 4.02 0.68 2.04 0 0 Z " fill="#53BCBF" transform="translate(350,244)"/>
<path d="M0 0 C0.66 0.33 1.32 0.66 2 1 C1.67 2.98 1.34 4.96 1 7 C-0.32 6.67 -1.64 6.34 -3 6 C-2.67 5.34 -2.34 4.68 -2 4 C-1.34 4 -0.68 4 0 4 C0 2.68 0 1.36 0 0 Z " fill="#87CDC5" transform="translate(184,285)"/>
<path d="M0 0 C1.98 0 3.96 0 6 0 C6.33 1.32 6.66 2.64 7 4 C4.08482708 2.92598892 2.22189824 2.22189824 0 0 Z " fill="#3A425F" transform="translate(344,240)"/>
</svg>
