<!DOCTYPE svg PUBLIC "-//W3C//DTD SVG 1.1//EN" "http://www.w3.org/Graphics/SVG/1.1/DTD/svg11.dtd">
<!-- Uploaded to: SVG Repo, www.svgrepo.com, Transformed by: SVG Repo Mixer Tools -->
<svg width="800px" height="800px" viewBox="0 -3 64 64" version="1.1" xmlns="http://www.w3.org/2000/svg" xmlns:xlink="http://www.w3.org/1999/xlink" xmlns:sketch="http://www.bohemiancoding.com/sketch/ns" fill="#f0c7c7" stroke="#f0c7c7" transform="rotate(0)">
<g id="SVGRepo_bgCarrier" stroke-width="0"/>
<g id="SVGRepo_tracerCarrier" stroke-linecap="round" stroke-linejoin="round" stroke="#CCCCCC" stroke-width="0.384"/>
<g id="SVGRepo_iconCarrier"> <title>Mail-empty</title> <desc>Created with Sketch.</desc> <defs> </defs> <g id="Page-1" stroke-width="6.4" fill="none" fill-rule="evenodd" sketch:type="MSPage"> <g id="Mail-empty" sketch:type="MSLayerGroup" transform="translate(1.000000, 2.000000)" stroke="#49d0c4" stroke-width="6.4"> <path d="M0,53 C0,54.1 0.9,55 2,55 L60,55 C61.1,55 62,54.1 62,53 L62,19 C62,17.9 61.1,17 60,17 L31,0 L2,17 C0.9,17 0,17.9 0,19 L0,53 L0,53 Z" id="Shape" sketch:type="MSShapeGroup"> </path> <path d="M62,19 C62,17.9 31,41 31,41 L31,41 C22.6,34.8 0,18.1 0,19" id="Shape" sketch:type="MSShapeGroup"> </path> <path d="M61,54 L37,37" id="Shape" sketch:type="MSShapeGroup"> </path> <path d="M1,54 L25,37" id="Shape" sketch:type="MSShapeGroup"> </path> </g> </g> </g>
</svg>