<?xml version="1.0" encoding="UTF-8"?>
<svg version="1.1" xmlns="http://www.w3.org/2000/svg" width="314" height="314">
<path d="M0 0 C4.26571541 1.46930197 7.65349294 3.71783665 11.25 6.375 C12.49562602 7.28059162 13.74174159 8.18551016 14.98828125 9.08984375 C15.64135254 9.56534668 16.29442383 10.04084961 16.96728516 10.53076172 C19.72562591 12.52447955 22.51009976 14.47983383 25.29614258 16.43457031 C28.87243755 18.94462297 32.43736452 21.4706096 36 24 C36.7312207 24.51868652 37.46244141 25.03737305 38.21582031 25.57177734 C40.33700262 27.08185938 42.45082426 28.60166192 44.5625 30.125 C45.21210693 30.58640381 45.86171387 31.04780762 46.53100586 31.52319336 C48.05795504 32.63254397 49.53497627 33.81006806 51 35 C51 35.66 51 36.32 51 37 C51.66644531 37.21527344 52.33289063 37.43054688 53.01953125 37.65234375 C56.99181426 39.44846123 60.22413079 41.93893904 63.6875 44.5625 C65.02380586 45.56504786 66.36100441 46.56640728 67.69921875 47.56640625 C68.28533936 48.00927979 68.87145996 48.45215332 69.4753418 48.90844727 C71.02349814 50.07718194 71.02349814 50.07718194 73 51 C73 51.66 73 52.32 73 53 C73.680625 53.226875 74.36125 53.45375 75.0625 53.6875 C78.77186656 55.34487655 81.76599763 57.56403626 85 60 C85.65355469 60.48766846 86.30710937 60.97533691 86.98046875 61.4777832 C88.33011956 62.48724761 89.67777129 63.49939015 91.0234375 64.51416016 C92.88182052 65.91116103 94.75156255 67.29126045 96.625 68.66796875 C106.18598545 75.7577402 114.09442702 82.26396325 116.46484375 94.375 C117.76025652 103.69032776 116.06354797 111.65025194 110.9453125 119.5625 C104.98265532 127.03378129 96.4619046 132.17126314 88.63671875 137.49609375 C84.45071198 140.35604789 80.35218256 143.33411305 76.25 146.3125 C70.40958636 150.55124214 64.53801428 154.73825744 58.625 158.875 C51.45281469 163.90206818 44.44949484 169.13546574 37.46386719 174.41772461 C31.31967052 179.04969606 25.07831155 183.51792742 18.7590332 187.90722656 C13.94708499 191.26846708 9.40998749 194.81466576 4.98046875 198.671875 C3 200 3 200 -1 200 C-1.30578408 193.47250367 -1.51499412 186.94686635 -1.65917969 180.41381836 C-1.71930891 178.19501765 -1.80104415 175.97668823 -1.90527344 173.75952148 C-2.72453499 155.8763268 -2.72453499 155.8763268 0.10174561 151.16241455 C3.17386667 147.82687123 6.96649067 145.93862296 11 144 C12.29857624 143.09223251 13.57754979 142.15466843 14.8203125 141.171875 C15.92123852 140.36371556 17.02280153 139.55642316 18.125 138.75 C18.74205811 138.29802246 19.35911621 137.84604492 19.99487305 137.38037109 C28.77265704 130.96058581 37.60087503 124.61020544 46.42431641 118.25341797 C48.04310229 117.08704952 49.66167522 115.92038548 51.2800293 114.75341797 C52.79011708 113.66451969 54.30066093 112.57625345 55.81176758 111.48876953 C60.5833773 108.04762491 65.30554355 104.54564532 70 101 C68.73266645 97.19799934 67.24882999 96.59382318 63.9375 94.4375 C62.25774062 93.34200476 60.60188902 92.20650444 59 91 C59 90.34 59 89.68 59 89 C56.26148019 88.13805756 56.26148019 88.13805756 53 88 C50.22925427 89.50965894 50.22925427 89.50965894 47.5625 91.9375 C41.47669355 96.95219719 35.12386267 101.47326136 28.625 105.9375 C20.37350906 111.60577043 20.37350906 111.60577043 12.2890625 117.5078125 C11.59731934 118.02867432 10.90557617 118.54953613 10.19287109 119.08618164 C8.93102063 120.04501675 7.6756883 121.01251347 6.42822266 121.98999023 C4.765625 123.25390625 4.765625 123.25390625 2 125 C1.01 124.67 0.02 124.34 -1 124 C-1.46060928 117.54735022 -1.77314334 111.09897641 -1.98876953 104.63354492 C-2.07870111 102.44118062 -2.20112381 100.24987861 -2.35791016 98.0612793 C-3.59868072 80.28095607 -3.59868072 80.28095607 0.79260254 74.73675537 C5.12068968 70.81239972 9.9269855 67.87236732 15.13845825 65.26164246 C17.33708438 63.77154423 18.02132617 62.4346443 19 60 C18.41947372 59.87397903 17.83894745 59.74795807 17.24082947 59.61811829 C10.23062954 57.68440007 3.21649415 52.90388323 -1 47 C-3.57621016 39.43780034 -2.55350035 31.14987518 -2.0625 23.3125 C-1.99070344 21.15973758 -1.92618671 19.00671941 -1.86914062 16.85351562 C-1.38044053 1.38044053 -1.38044053 1.38044053 0 0 Z " fill="#06093B" transform="translate(177,57)"/>
<path d="M0 0 C0.99 0.495 0.99 0.495 2 1 C2.28000398 7.54600926 2.47196519 14.09046636 2.60424805 20.64111328 C2.65940889 22.866635 2.73436324 25.09176083 2.82983398 27.31591797 C3.5855882 45.3812728 3.5855882 45.3812728 0.91705322 49.78857422 C-1.90799678 52.78588493 -5.265795 54.40402264 -9 56 C-9.99 56.99 -9.99 56.99 -11 58 C-11.99 58 -12.98 58 -14 58 C-14 58.66 -14 59.32 -14 60 C-15.36669922 61.21411133 -15.36669922 61.21411133 -17.3046875 62.58203125 C-18.02398437 63.09507813 -18.74328125 63.608125 -19.484375 64.13671875 C-20.27328125 64.68972656 -21.0621875 65.24273437 -21.875 65.8125 C-23.5391855 66.9959208 -25.20324458 68.17951939 -26.8671875 69.36328125 C-27.72280273 69.96865723 -28.57841797 70.5740332 -29.45996094 71.19775391 C-34.06604926 74.46593384 -38.63671569 77.783245 -43.20605469 81.10253906 C-47.15419854 83.96524679 -51.12409926 86.78899457 -55.1328125 89.56640625 C-56.38578125 90.44425781 -56.38578125 90.44425781 -57.6640625 91.33984375 C-59.27370118 92.46659083 -60.89067038 93.58295568 -62.515625 94.6875 C-63.23492187 95.19410156 -63.95421875 95.70070313 -64.6953125 96.22265625 C-65.33484863 96.66359619 -65.97438477 97.10453613 -66.63330078 97.55883789 C-68.45874186 99.15270986 -68.45874186 99.15270986 -68 103 C-65.63592768 104.89975517 -63.35988414 106.50794232 -60.8125 108.125 C-59.32875117 109.10377893 -57.84700424 110.08559873 -56.3671875 111.0703125 C-55.6256543 111.56176758 -54.88412109 112.05322266 -54.12011719 112.55957031 C-50.57716769 114.96668708 -47.23076161 117.59942948 -43.85546875 120.2355957 C-33.57038941 128.24959625 -22.9265388 135.79984171 -12.34106445 143.40942383 C-11.63167725 143.92013428 -10.92229004 144.43084473 -10.19140625 144.95703125 C-9.57467041 145.40022705 -8.95793457 145.84342285 -8.32250977 146.30004883 C-7.55608154 146.86103271 -6.78965332 147.4220166 -6 148 C-5.3350351 148.37741333 -4.67007019 148.75482666 -3.98495483 149.14367676 C-0.7693535 151.14392392 1.58738638 152.61290423 2.69871521 156.34889221 C2.92601569 159.22065306 2.9004412 161.98889437 2.78125 164.8671875 C2.76993042 165.90191193 2.75861084 166.93663635 2.74694824 168.00271606 C2.70229758 171.29539113 2.60195298 174.58365013 2.5 177.875 C2.45985852 180.11191611 2.42335893 182.34890073 2.390625 184.5859375 C2.30260124 190.05878873 2.168881 195.52907893 2 201 C-2.06423396 200.45436594 -4.38153291 199.27788564 -7.58984375 196.75390625 C-8.87894653 195.75290894 -8.87894653 195.75290894 -10.1940918 194.73168945 C-11.0994165 194.01585693 -12.00474121 193.30002441 -12.9375 192.5625 C-14.83733357 191.08698483 -16.73837559 189.61302433 -18.640625 188.140625 C-19.56294922 187.42455078 -20.48527344 186.70847656 -21.43554688 185.97070312 C-24.63631504 183.51101152 -27.88863509 181.13826154 -31.1875 178.8125 C-31.72979248 178.4294873 -32.27208496 178.04647461 -32.83081055 177.65185547 C-33.95056283 176.86157729 -35.07060358 176.07170769 -36.19091797 175.28222656 C-39.72817903 172.77511521 -43.23717958 170.22868127 -46.75 167.6875 C-47.50821045 167.13940674 -48.2664209 166.59131348 -49.04760742 166.02661133 C-50.59367803 164.90897976 -52.13965729 163.7912218 -53.68554688 162.67333984 C-57.4559302 159.94736861 -61.22804762 157.22379947 -65 154.5 C-66.49088967 153.42318298 -67.98177508 152.34636004 -69.47265625 151.26953125 C-73.35035517 148.4689241 -77.22860232 145.66907791 -81.10766602 142.87036133 C-82.64703204 141.75846256 -84.18530262 140.64504546 -85.72241211 139.5300293 C-88.88081662 137.24008996 -92.04393276 134.9697633 -95.2578125 132.7578125 C-103.24262083 127.21960282 -112.11585561 120.46389392 -114.625 110.6015625 C-116.22906896 99.47333408 -115.72036519 90.31442616 -109 81 C-105.93010226 77.61984664 -102.6028316 74.79707012 -99 72 C-97.67355469 70.96166016 -97.67355469 70.96166016 -96.3203125 69.90234375 C-93.24574566 67.55596379 -90.13067077 65.27044141 -87 63 C-85.91380371 62.20891846 -85.91380371 62.20891846 -84.80566406 61.40185547 C-63.64835536 46 -63.64835536 46 -61 46 C-61 45.34 -61 44.68 -61 44 C-59.02 43.505 -59.02 43.505 -57 43 C-57 42.34 -57 41.68 -57 41 C-55.07465554 39.47396332 -53.14824644 38.07420723 -51.125 36.6875 C-49.83416133 35.78453152 -48.54382087 34.88085052 -47.25390625 33.9765625 C-46.56312988 33.49477539 -45.87235352 33.01298828 -45.16064453 32.51660156 C-41.43509695 29.90156184 -37.749915 27.23090946 -34.0625 24.5625 C-33.30404785 24.014729 -32.5455957 23.46695801 -31.76416016 22.90258789 C-26.20679056 18.88524795 -20.67709562 14.83126456 -15.15429688 10.76660156 C-10.15833599 7.09760729 -5.10336075 3.51831694 0 0 Z " fill="#07093A" transform="translate(136,56)"/>
<path d="M0 0 C6.34026139 3.45752051 12.23914581 7.47473108 18.1875 11.5625 C19.17169922 12.23474609 20.15589844 12.90699219 21.16992188 13.59960938 C26.41612837 17.19099615 26.41612837 17.19099615 29 19 C29.76223877 19.52456787 30.52447754 20.04913574 31.30981445 20.58959961 C31.86757568 21.05503174 32.42533691 21.52046387 33 22 C33 22.66 33 23.32 33 24 C33.66 24.33 34.32 24.66 35 25 C18.30338643 37.28851058 1.5060932 49.43888416 -15.4140625 61.41796875 C-22.29881747 66.30112617 -29.08245367 71.29746984 -35.81445312 76.38916016 C-41.46471367 80.64320154 -47.23197484 84.71518506 -53.03710938 88.75439453 C-57.91564952 92.16960039 -62.52573393 95.7586922 -67.01953125 99.671875 C-69 101 -69 101 -73 101 C-73.30578408 94.47250367 -73.51499412 87.94686635 -73.65917969 81.41381836 C-73.71930891 79.19501765 -73.80104415 76.97668823 -73.90527344 74.75952148 C-74.72453499 56.8763268 -74.72453499 56.8763268 -71.89825439 52.16241455 C-68.82613333 48.82687123 -65.03350933 46.93862296 -61 45 C-59.70142376 44.09223251 -58.42245021 43.15466843 -57.1796875 42.171875 C-56.07876148 41.36371556 -54.97719847 40.55642316 -53.875 39.75 C-53.25794189 39.29802246 -52.64088379 38.84604492 -52.00512695 38.38037109 C-47.0787961 34.77741318 -42.13568881 31.19785979 -37.1875 27.625 C-36.43968262 27.08496338 -35.69186523 26.54492676 -34.92138672 25.98852539 C-31.02150539 23.17425967 -27.11716908 20.36640529 -23.20703125 17.56640625 C-15.30651943 11.89997232 -7.47898077 6.21995637 0 0 Z " fill="#49D0C4" transform="translate(249,156)"/>
<path d="M0 0 C1.67394141 1.65936003 3.33922464 3.32746278 5 5 C7.00973007 6.52227522 9.05489473 7.99840272 11.125 9.4375 C12.37074628 10.31244448 13.61548222 11.18882868 14.859375 12.06640625 C15.85807617 12.77047607 15.85807617 12.77047607 16.87695312 13.48876953 C20.74200099 16.2399938 24.55783088 19.05790529 28.375 21.875 C29.18106689 22.46949951 29.98713379 23.06399902 30.81762695 23.67651367 C36.65868748 27.99219052 42.46579167 32.351749 48.26611328 36.72192383 C53.81445871 40.88916324 59.44596138 44.93248258 65.109375 48.94140625 C66.06328125 49.62074219 67.0171875 50.30007812 68 51 C68.7102533 51.44144852 69.42050659 51.88289703 70.15228271 52.33772278 C72 54 72 54 72.48101807 56.14506531 C72.4676944 57.38749748 72.4676944 57.38749748 72.45410156 58.6550293 C72.45379944 59.59577805 72.45349731 60.53652679 72.45318604 61.50578308 C72.43254089 62.51836685 72.41189575 63.53095062 72.390625 64.57421875 C72.38496521 65.61318802 72.37930542 66.65215729 72.37347412 67.72261047 C72.35106327 71.04470681 72.3008569 74.36572904 72.25 77.6875 C72.22994115 79.93813548 72.21168931 82.18878784 72.1953125 84.43945312 C72.1511832 89.9600026 72.08422421 95.47992457 72 101 C67.93576604 100.45436594 65.61846709 99.27788564 62.41015625 96.75390625 C61.12105347 95.75290894 61.12105347 95.75290894 59.8059082 94.73168945 C58.9005835 94.01585693 57.99525879 93.30002441 57.0625 92.5625 C55.16266643 91.08698483 53.26162441 89.61302433 51.359375 88.140625 C50.43705078 87.42455078 49.51472656 86.70847656 48.56445312 85.97070312 C45.36368496 83.51101152 42.11136491 81.13826154 38.8125 78.8125 C38.27020752 78.4294873 37.72791504 78.04647461 37.16918945 77.65185547 C36.04943717 76.86157729 34.92939642 76.07170769 33.80908203 75.28222656 C30.27182097 72.77511521 26.76282042 70.22868127 23.25 67.6875 C22.49178955 67.13940674 21.7335791 66.59131348 20.95239258 66.02661133 C19.40632197 64.90897976 17.86034271 63.7912218 16.31445312 62.67333984 C12.5440698 59.94736861 8.77195238 57.22379947 5 54.5 C3.50911033 53.42318298 2.01822492 52.34636004 0.52734375 51.26953125 C-3.35090776 48.468525 -7.22983223 45.66845232 -11.10913086 42.86889648 C-12.64309702 41.76116607 -14.17647785 40.65262457 -15.70922852 39.54321289 C-18.9521246 37.19617631 -22.19756456 34.85436614 -25.46875 32.546875 C-26.4484375 31.85078125 -27.428125 31.1546875 -28.4375 30.4375 C-29.67306641 29.56931641 -29.67306641 29.56931641 -30.93359375 28.68359375 C-33.03648923 26.97027059 -34.478952 25.23510913 -36 23 C-35.319375 22.55011719 -34.63875 22.10023438 -33.9375 21.63671875 C-27.11498008 17.1095413 -20.34692197 12.51061981 -13.609375 7.8581543 C-12.33872198 6.98123149 -11.06695848 6.10591498 -9.79394531 5.23242188 C-8.61278647 4.42097797 -7.43494358 3.60468259 -6.26074219 2.78320312 C-2.22289653 0 -2.22289653 0 0 0 Z " fill="#49D0C4" transform="translate(66,156)"/>
<path d="M0 0 C4.25922824 1.44565046 7.24974103 3.57297922 10.75 6.375 C16.83782281 11.19197629 23.12863447 15.66843977 29.52636719 20.06396484 C30.22407227 20.54816895 30.92177734 21.03237305 31.640625 21.53125 C32.26485352 21.95986328 32.88908203 22.38847656 33.53222656 22.83007812 C35 24 35 24 36 26 C29.60937143 30.69290219 23.16921632 35.30911583 16.6875 39.875 C11.32380492 43.65343974 5.96531563 47.43857106 0.625 51.25 C0.05958496 51.65178467 -0.50583008 52.05356934 -1.08837891 52.4675293 C-3.82500395 54.41798354 -6.53574528 56.3950024 -9.20703125 58.43359375 C-10.68236328 59.54927734 -10.68236328 59.54927734 -12.1875 60.6875 C-13.04730469 61.35136719 -13.90710938 62.01523438 -14.79296875 62.69921875 C-15.52128906 63.12847656 -16.24960938 63.55773437 -17 64 C-17.99 63.67 -18.98 63.34 -20 63 C-20.46060928 56.54735022 -20.77314334 50.09897641 -20.98876953 43.63354492 C-21.07870111 41.44118062 -21.20112381 39.24987861 -21.35791016 37.0612793 C-22.5971835 19.30241123 -22.5971835 19.30241123 -18.20739746 13.72064209 C-13.88492338 9.76436477 -9.073133 6.79595947 -3.86154175 4.14811707 C-1.69073005 2.98784754 -1.69073005 2.98784754 0 0 Z " fill="#4AD0C4" transform="translate(196,118)"/>
<path d="M0 0 C2.49361571 1.20381448 4.68143083 2.45428722 7 4 C7.36076355 6.02481079 7.36076355 6.02481079 7.34057617 8.54150391 C7.34023628 9.95274033 7.34023628 9.95274033 7.33988953 11.39248657 C7.32440567 12.41023163 7.30892181 13.42797668 7.29296875 14.4765625 C7.28872391 15.51694672 7.28447906 16.55733093 7.28010559 17.62924194 C7.26327482 20.96142147 7.22561422 24.29300241 7.1875 27.625 C7.17245887 29.88019962 7.15876947 32.13540869 7.14648438 34.390625 C7.11335699 39.92728855 7.0631142 45.46360152 7 51 C2.89132223 50.28634439 0.6064268 49.27141595 -2.6953125 46.68359375 C-3.5716333 46.00490234 -4.4479541 45.32621094 -5.35083008 44.62695312 C-6.26630615 43.90443359 -7.18178223 43.18191406 -8.125 42.4375 C-10.00584846 40.9770117 -11.88735293 39.51736781 -13.76953125 38.05859375 C-14.67010254 37.35718262 -15.57067383 36.65577148 -16.49853516 35.93310547 C-20.92176358 32.51488151 -25.44627025 29.24199964 -30 26 C-29.01 25.67 -28.02 25.34 -27 25 C-24.65234375 26.40625 -24.65234375 26.40625 -21.9375 28.5 C-17.31824312 32.01063523 -12.62316825 35.32976307 -7.80078125 38.5546875 C-6.90939453 39.27011719 -6.90939453 39.27011719 -6 40 C-6 40.66 -6 41.32 -6 42 C-5.484375 42.2475 -4.96875 42.495 -4.4375 42.75 C-1.23430947 44.39266181 1.87447333 46.21398476 5 48 C5 33.48 5 18.96 5 4 C3.35 3.34 1.7 2.68 0 2 C0 1.34 0 0.68 0 0 Z " fill="#549F9A" transform="translate(131,206)"/>
<path d="M0 0 C1.65 0.66 3.3 1.32 5 2 C3 5 3 5 0.5625 5.5 C-0.283125 5.665 -1.12875 5.83 -2 6 C-3.02196992 6.97753644 -4.01979625 7.9805881 -5 9 C-5.969375 9.474375 -6.93875 9.94875 -7.9375 10.4375 C-10.95961141 11.97939358 -12.70940666 13.54579285 -15 16 C-15.66 16.33 -16.32 16.66 -17 17 C-17 31.19 -17 45.38 -17 60 C-14.69 58.68 -12.38 57.36 -10 56 C-9.34 56.33 -8.68 56.66 -8 57 C-9.42722659 58.1998278 -10.86715776 59.3845576 -12.3125 60.5625 C-13.11300781 61.22378906 -13.91351563 61.88507813 -14.73828125 62.56640625 C-15.48464844 63.03949219 -16.23101562 63.51257813 -17 64 C-17.99 63.67 -18.98 63.34 -20 63 C-20.46060928 56.54735022 -20.77314334 50.09897641 -20.98876953 43.63354492 C-21.07870111 41.44118062 -21.20112381 39.24987861 -21.35791016 37.0612793 C-22.5971835 19.30241123 -22.5971835 19.30241123 -18.20739746 13.72064209 C-13.88492338 9.76436477 -9.073133 6.79595947 -3.86154175 4.14811707 C-1.69073005 2.98784754 -1.69073005 2.98784754 0 0 Z " fill="#5BB0AC" transform="translate(196,118)"/>
<path d="M0 0 C0 0.66 0 1.32 0 2 C-2.05093258 3.60494576 -4.10352585 5.09469047 -6.25 6.5625 C-8.08480193 7.83226634 -9.90587568 9.1076075 -11.70019531 10.43432617 C-14 12 -14 12 -17.13574219 13.60668945 C-23.26823343 17.13724444 -23.26823343 17.13724444 -26.61999512 23.14828491 C-27.50518036 29.44128454 -27.09243918 35.74083591 -26.75 42.0625 C-26.68973721 43.99657912 -26.63499648 45.93083864 -26.5859375 47.86523438 C-26.45436709 52.58131135 -26.24778147 57.28865763 -26 62 C-24.68 62.66 -23.36 63.32 -22 64 C-23.25 65.5 -23.25 65.5 -25 67 C-26.32 67 -27.64 67 -29 67 C-29.30578408 60.47250367 -29.51499412 53.94686635 -29.65917969 47.41381836 C-29.71930891 45.19501765 -29.80104415 42.97668823 -29.90527344 40.75952148 C-30.72360367 22.89665614 -30.72360367 22.89665614 -27.91436768 18.17550659 C-24.84657626 14.83286885 -21.02216241 12.96288739 -17 11 C-15.51229744 9.94159623 -14.04700139 8.85023341 -12.6171875 7.71484375 C-11.37018367 6.78853455 -10.12280287 5.86273255 -8.875 4.9375 C-8.23046875 4.45345703 -7.5859375 3.96941406 -6.921875 3.47070312 C-2.22881674 0 -2.22881674 0 0 0 Z " fill="#53AAA2" transform="translate(205,190)"/>
<path d="M0 0 C7.60181948 0.95022744 12.77837767 4.6333326 18 10 C20.17346568 10.86119134 20.17346568 10.86119134 22 11 C22.33 10.34 22.66 9.68 23 9 C23.99 9 24.98 9 26 9 C26 9.66 26 10.32 26 11 C26.99 10.67 27.98 10.34 29 10 C29.66 10.66 30.32 11.32 31 12 C31.99 9.69 32.98 7.38 34 5 C34.66 5 35.32 5 36 5 C36 3.35 36 1.7 36 0 C36.33 0 36.66 0 37 0 C36.75955092 7.45392133 34.8973219 13.21955448 30 19 C28.11328125 20.09375 28.11328125 20.09375 26 20 C24.85109802 18.90086214 23.71637604 17.78368327 22.65087891 16.60351562 C18.99836779 13.0557941 14.44634847 10.50723971 10.1875 7.75 C8.26234588 6.49782602 6.3390523 5.24278513 4.41796875 3.984375 C3.57000732 3.43491211 2.7220459 2.88544922 1.84838867 2.31933594 C1.23842041 1.88395508 0.62845215 1.44857422 0 1 C0 0.67 0 0.34 0 0 Z " fill="#070E3B" transform="translate(256,160)"/>
<path d="M0 0 C0.99 0.66 1.98 1.32 3 2 C-1.44606085 5.96540563 -6.18347159 9.07414808 -11.23828125 12.21875 C-14.450225 14.29038557 -17.45319524 16.55420744 -20.44140625 18.93359375 C-22 20 -22 20 -24 20 C-24 20.66 -24 21.32 -24 22 C-25.90374355 23.44963959 -27.87467159 24.81184323 -29.875 26.125 C-30.96554688 26.84945312 -32.05609375 27.57390625 -33.1796875 28.3203125 C-36 30 -36 30 -38 30 C-38 30.66 -38 31.32 -38 32 C-39.65 32.66 -41.3 33.32 -43 34 C-41.89158486 30.67475458 -41.34836837 30.25520945 -38.59765625 28.3203125 C-37.88061523 27.80984375 -37.16357422 27.299375 -36.42480469 26.7734375 C-35.64524414 26.22945312 -34.86568359 25.68546875 -34.0625 25.125 C-32.42308138 23.9610723 -30.78376138 22.79700566 -29.14453125 21.6328125 C-28.29713379 21.03500977 -27.44973633 20.43720703 -26.57666016 19.82128906 C-22.45052442 16.90476712 -18.34960872 13.95363323 -14.25 11 C-13.14410522 10.20940186 -13.14410522 10.20940186 -12.01586914 9.40283203 C-7.86457344 6.41847724 -3.88563837 3.32356489 0 0 Z " fill="#5EA9A3" transform="translate(249,156)"/>
<path d="M0 0 C2 3 2 3 2 5 C2.5775 5.103125 3.155 5.20625 3.75 5.3125 C6.35661158 6.10896465 7.9735311 7.19065277 10 9 C10 9.66 10 10.32 10 11 C10.53625 11.226875 11.0725 11.45375 11.625 11.6875 C14.18540575 13.10246107 16.22111611 14.87397695 18.4296875 16.77734375 C20.14440724 18.19509269 20.14440724 18.19509269 23 19.5 C25.47997779 20.73998889 27.07077947 21.79215417 29.125 23.5625 C31.75269047 26.01201743 31.75269047 26.01201743 34.3125 27.0625 C36 28 36 28 36.60546875 30.05859375 C36.80076172 31.01958984 36.80076172 31.01958984 37 32 C27.2715738 26.18480591 18.28765793 19.40312848 9.20849609 12.64013672 C4.83233393 9.39018565 0.41606108 6.19544195 -4 3 C-2.68 2.01 -1.36 1.02 0 0 Z " fill="#5AA9A0" transform="translate(44,185)"/>
<path d="M0 0 C1.67252484 1.66078783 3.33802154 3.32865828 5 5 C7.10513262 6.59380842 9.20596448 8.12573206 11.375 9.625 C12.60483021 10.48863921 13.83397104 11.35326076 15.0625 12.21875 C15.70058594 12.66734375 16.33867188 13.1159375 16.99609375 13.578125 C20.48500455 16.05368744 23.92936466 18.58971953 27.375 21.125 C28.3657251 21.85323975 28.3657251 21.85323975 29.37646484 22.59619141 C30.91820583 23.73002967 32.45919164 24.86489468 34 26 C33.505 27.485 33.505 27.485 33 29 C30.96166576 27.7260411 28.96147874 26.38938077 27 25 C27 24.34 27 23.68 27 23 C26.01 22.690625 26.01 22.690625 25 22.375 C21.52948354 20.78434662 18.84289379 18.70767229 15.8671875 16.33984375 C13.93516371 14.81385317 13.93516371 14.81385317 11 14 C11 13.34 11 12.68 11 12 C10.34 12 9.68 12 9 12 C9 11.34 9 10.68 9 10 C6.525 9.01 6.525 9.01 4 8 C4 7.34 4 6.68 4 6 C2.8553125 5.5978125 2.8553125 5.5978125 1.6875 5.1875 C-0.87380884 4.05575888 -2.19692938 3.08776599 -4 1 C-2 0 -2 0 0 0 Z " fill="#5DB3A9" transform="translate(66,156)"/>
<path d="M0 0 C-1.35507085 3.16790156 -2.68782096 4.80615319 -5.5 6.77734375 C-6.21414062 7.28491211 -6.92828125 7.79248047 -7.6640625 8.31542969 C-8.43492187 8.85071289 -9.20578125 9.38599609 -10 9.9375 C-11.62521798 11.08693144 -13.2502111 12.23668086 -14.875 13.38671875 C-15.71546875 13.97759277 -16.5559375 14.5684668 -17.421875 15.17724609 C-22.42933374 18.71755736 -27.37649641 22.34187275 -32.3359375 25.94897461 C-33.05007812 26.46596924 -33.76421875 26.98296387 -34.5 27.515625 C-35.1290625 27.97227539 -35.758125 28.42892578 -36.40625 28.89941406 C-38 30 -38 30 -40 31 C-38.7978674 26.32503988 -36.45867887 24.53616659 -32.65625 21.91796875 C-31 21 -31 21 -29 21 C-29 20.34 -29 19.68 -29 19 C-28.15953125 18.61972656 -27.3190625 18.23945313 -26.453125 17.84765625 C-22.51103242 15.73836915 -19.21929882 13.23425466 -15.75 10.4375 C-15.12609375 9.94314453 -14.5021875 9.44878906 -13.859375 8.93945312 C-11.47438684 7.0402007 -9.15750247 5.15750247 -7 3 C-2.38461538 0 -2.38461538 0 0 0 Z " fill="#5DA59D" transform="translate(224,222)"/>
<path d="M0 0 C6.51717963 3.96482411 12.60289389 8.15679241 18.49609375 13 C22.51574859 16.21070714 26.74926662 19.10588365 31 22 C29.33333333 23.33333333 27.66666667 24.66666667 26 26 C25.154375 26.763125 24.30875 27.52625 23.4375 28.3125 C21 30 21 30 18.6875 29.75 C18.130625 29.5025 17.57375 29.255 17 29 C17.99 28.67 18.98 28.34 20 28 C20 27.34 20 26.68 20 26 C21.98 25.34 23.96 24.68 26 24 C26 22.68 26 21.36 26 20 C25.18208984 19.61714844 25.18208984 19.61714844 24.34765625 19.2265625 C20.57382614 17.25487755 17.10152061 14.81647911 13.55859375 12.4609375 C11.05684847 10.75207332 11.05684847 10.75207332 8 11 C7.79375 10.443125 7.5875 9.88625 7.375 9.3125 C6.01718779 7.02890674 4.92057214 6.0008439 2.875 4.375 C1.92625 3.59125 0.9775 2.8075 0 2 C0 1.34 0 0.68 0 0 Z " fill="#68C0CC" transform="translate(201,121)"/>
<path d="M0 0 C0.66 0 1.32 0 2 0 C3.07045596 5.12521337 3.04976654 9.92149448 2.87890625 15.1171875 C2.85529526 15.97434357 2.83168427 16.83149963 2.80735779 17.71463013 C2.73118088 20.43494148 2.64696063 23.1549345 2.5625 25.875 C2.50923321 27.72654726 2.45649317 29.57810975 2.40429688 31.4296875 C2.27562847 35.95332411 2.13974909 40.4766927 2 45 C1.34 44.67 0.68 44.34 0 44 C0 29.48 0 14.96 0 0 Z " fill="#050027" transform="translate(177,57)"/>
<path d="M0 0 C0.99 0.66 1.98 1.32 3 2 C-7.25489194 9.45007598 -17.53615785 16.84539415 -28 24 C-28.66 23.67 -29.32 23.34 -30 23 C-27.77519366 19.60424296 -25.5379977 17.94589874 -22 16 C-21.01 15.34 -20.02 14.68 -19 14 C-18.01 14 -17.02 14 -16 14 C-15.67 13.01 -15.34 12.02 -15 11 C-12.9375 10.3125 -12.9375 10.3125 -11 10 C-11 9.34 -11 8.68 -11 8 C-10.113125 7.608125 -9.22625 7.21625 -8.3125 6.8125 C-4.87870392 4.93363045 -2.63458231 2.86704545 0 0 Z " fill="#5AADA4" transform="translate(256,197)"/>
<path d="M0 0 C-3.96375267 8.23240938 -3.96375267 8.23240938 -6.6875 10.25 C-10.09206368 11.35418282 -13.43953933 11.64395393 -17 12 C-14.89850902 8.0106122 -12.76524542 5.74322954 -9.0625 3.1875 C-8.20785156 2.58292969 -7.35320312 1.97835937 -6.47265625 1.35546875 C-4 0 -4 0 0 0 Z " fill="#090530" transform="translate(112,76)"/>
<path d="M0 0 C-19.21962777 14.07576572 -19.21962777 14.07576572 -29 20 C-29 19.01 -29 18.02 -29 17 C-25.66666667 14 -25.66666667 14 -23 14 C-23 13.34 -23 12.68 -23 12 C-21.3603125 11.1028125 -21.3603125 11.1028125 -19.6875 10.1875 C-17.55630357 8.98253783 -15.9904987 7.9904987 -14.25 6.25 C-13.63125 5.63125 -13.63125 5.63125 -13 5 C-12.01 5 -11.02 5 -10 5 C-9.690625 4.071875 -9.690625 4.071875 -9.375 3.125 C-7.25535372 -0.15081698 -3.63044833 -1.81522417 0 0 Z " fill="#65B1A9" transform="translate(218,154)"/>
<path d="M0 0 C0.33 0 0.66 0 1 0 C1.33 13.53 1.66 27.06 2 41 C5.07331888 41.26030371 5.07331888 41.26030371 7.5625 39.4375 C8.366875 38.963125 9.17125 38.48875 10 38 C10.66 38.33 11.32 38.66 12 39 C10.57277341 40.1998278 9.13284224 41.3845576 7.6875 42.5625 C6.88699219 43.22378906 6.08648437 43.88507813 5.26171875 44.56640625 C4.51535156 45.03949219 3.76898438 45.51257813 3 46 C2.01 45.67 1.02 45.34 0 45 C0 30.15 0 15.3 0 0 Z " fill="#64A9A8" transform="translate(176,136)"/>
<path d="M0 0 C3.68172122 0.61927569 5.91880803 2.2046316 8.875 4.4375 C9.82761719 5.14777344 10.78023437 5.85804688 11.76171875 6.58984375 C12.27653809 6.9751123 12.79135742 7.36038086 13.32177734 7.75732422 C16.41356909 10.0467074 19.55303743 12.26960177 22.6875 14.5 C23.89976841 15.36454291 25.11201044 16.22912283 26.32421875 17.09375 C27.20722656 17.7228125 28.09023437 18.351875 29 19 C28.34 19.33 27.68 19.66 27 20 C24.96855359 19.06553465 22.96466413 18.06775224 21 17 C21 16.34 21 15.68 21 15 C20.071875 14.731875 19.14375 14.46375 18.1875 14.1875 C15.05262855 13.01960671 14.20809597 12.30009997 12 10 C11.030625 9.54625 10.06125 9.0925 9.0625 8.625 C5.69733035 6.83939978 4.19907312 5.0629947 2 2 C1.34 1.34 0.68 0.68 0 0 Z " fill="#57A59C" transform="translate(101,185)"/>
<path d="M0 0 C2 1 4 2 6 3 C6 4.32 6 5.64 6 7 C3 9 3 9 0 9 C0 9.66 0 10.32 0 11 C-0.99 11.495 -0.99 11.495 -2 12 C-1.34 12.66 -0.68 13.32 0 14 C-3.37097383 15.49821059 -5.20442119 16 -9 16 C-9 15.34 -9 14.68 -9 14 C-7.35 14 -5.7 14 -4 14 C-4.0928125 12.824375 -4.0928125 12.824375 -4.1875 11.625 C-4.125625 10.75875 -4.06375 9.8925 -4 9 C-3.01 8.34 -2.02 7.68 -1 7 C-1 6.01 -1 5.02 -1 4 C-0.34 3.67 0.32 3.34 1 3 C0.67 2.01 0.34 1.02 0 0 Z " fill="#4FCFC8" transform="translate(221,138)"/>
<path d="M0 0 C2.6875 0.875 2.6875 0.875 5 2 C2.92446352 2.5534764 1.15634036 3 -1 3 C-1.33 3.99 -1.66 4.98 -2 6 C-2.598125 6.144375 -3.19625 6.28875 -3.8125 6.4375 C-6.78654193 7.20225364 -7.94591017 8.75333925 -10 11 C-12 13 -14 15 -16 17 C-16.66 15.68 -17.32 14.36 -18 13 C-12.30821794 8.25684828 -6.159826 4.10655066 0 0 Z " fill="#56BDC0" transform="translate(61,158)"/>
<path d="M0 0 C7.625 0.875 7.625 0.875 11 2 C12 5 12 5 12.3125 7.0625 C12.8181576 9.19798729 12.8181576 9.19798729 15 10 C15.66 10.33 16.32 10.66 17 11 C17.625 13.0625 17.625 13.0625 18 15 C5.08695652 6.66604995 5.08695652 6.66604995 0 2 C0 1.34 0 0.68 0 0 Z " fill="#4EB4AA" transform="translate(82,216)"/>
<path d="M0 0 C0.33 0 0.66 0 1 0 C1.02505615 0.95366455 1.0501123 1.9073291 1.07592773 2.88989258 C1.17012071 6.42909107 1.27031231 9.96809875 1.37231445 13.50708008 C1.41561833 15.03861018 1.45729667 16.57018715 1.49731445 18.10180664 C1.55512732 20.30369182 1.61878969 22.50534211 1.68359375 24.70703125 C1.70030624 25.39150833 1.71701874 26.07598541 1.73423767 26.78120422 C1.8273555 29.77120104 2.04687437 32.14062311 3 35 C5.00016466 36.20882096 5.00016466 36.20882096 7 37 C5.75 38.5 5.75 38.5 4 40 C2.68 40 1.36 40 0 40 C0 26.8 0 13.6 0 0 Z " fill="#5BA19E" transform="translate(176,217)"/>
<path d="M0 0 C0.33 0 0.66 0 1 0 C0.75955092 7.45392133 -1.1026781 13.21955448 -6 19 C-8.19921875 19.78125 -8.19921875 19.78125 -10 20 C-9.5 18 -9.5 18 -9 16 C-8.835 15.29875 -8.67 14.5975 -8.5 13.875 C-8 12 -8 12 -7 10 C-6.34 10.66 -5.68 11.32 -5 12 C-4.01 9.69 -3.02 7.38 -2 5 C-1.34 5 -0.68 5 0 5 C0 3.35 0 1.7 0 0 Z " fill="#1E1D3C" transform="translate(292,160)"/>
<path d="M0 0 C-0.33 1.32 -0.66 2.64 -1 4 C-2.65 4.33 -4.3 4.66 -6 5 C-5.34 5.33 -4.68 5.66 -4 6 C-3.26924352 8.3140622 -2.59861742 10.64828869 -2 13 C-6.41889613 11.64978174 -8.34345343 9.73884332 -11 6 C-9.54550599 4.9944239 -8.08627557 3.99569565 -6.625 3 C-5.40683594 2.1646875 -5.40683594 2.1646875 -4.1640625 1.3125 C-2 0 -2 0 0 0 Z " fill="#59C5C6" transform="translate(41,173)"/>
<path d="M0 0 C8.17462189 5.09480442 16.11573349 10.47223922 24 16 C23.67 16.66 23.34 17.32 23 18 C18.87168745 16.1234943 16.17770975 14.17770975 13 11 C10.8618034 10.2127322 10.8618034 10.2127322 9 10 C9 9.01 9 8.02 9 7 C8.46375 6.9175 7.9275 6.835 7.375 6.75 C4.1647569 5.73623902 1.73707608 3.92839451 -1 2 C-0.67 1.34 -0.34 0.68 0 0 Z " fill="#60B9C3" transform="translate(258,162)"/>
<path d="M0 0 C1.125 1.75 1.125 1.75 2 4 C1.690625 4.5465625 1.38125 5.093125 1.0625 5.65625 C-0.44317226 8.97758586 -0.21275072 12.17922071 -0.125 15.75 C-0.11597656 16.44738281 -0.10695313 17.14476562 -0.09765625 17.86328125 C-0.07419888 19.57566958 -0.03833104 21.28788004 0 23 C-0.99 22.67 -1.98 22.34 -3 22 C-3.55353075 6.07061503 -3.55353075 6.07061503 0 0 Z " fill="#130F2C" transform="translate(24,142)"/>
<path d="M0 0 C1.32 0.66 2.64 1.32 4 2 C-1.28 5.96 -6.56 9.92 -12 14 C-12.66 13.67 -13.32 13.34 -14 13 C-13.67 12.01 -13.34 11.02 -13 10 C-11.68 10 -10.36 10 -9 10 C-8.67 9.01 -8.34 8.02 -8 7 C-7.34 7 -6.68 7 -6 7 C-5.67 6.01 -5.34 5.02 -5 4 C-3.37667033 2.61423077 -1.71275535 1.27358732 0 0 Z " fill="#231B38" transform="translate(104,124)"/>
<path d="M0 0 C0.66 0.33 1.32 0.66 2 1 C-4.68207757 6.58047693 -11.56273248 11.4754266 -19 16 C-16.41875307 10.23806966 -11.43506464 6.93787278 -6 4 C-5.01 3.67 -4.02 3.34 -3 3 C-3 2.34 -3 1.68 -3 1 C-2.01 0.67 -1.02 0.34 0 0 Z " fill="#60A9A0" transform="translate(280,181)"/>
<path d="M0 0 C0.66 0.33 1.32 0.66 2 1 C1.34 2.32 0.68 3.64 0 5 C-0.99 5 -1.98 5 -3 5 C-3.53625 5.7425 -4.0725 6.485 -4.625 7.25 C-7.85191051 10.9864227 -11.48644085 12.22245933 -16 14 C-16.99 14.495 -16.99 14.495 -18 15 C-16.6660303 10.99809089 -14.06058099 9.71942137 -10.6875 7.5 C-5.26154321 3.86632863 -5.26154321 3.86632863 0 0 Z " fill="#2C2945" transform="translate(71,103)"/>
<path d="M0 0 C5.05191313 0.97152176 9.24373986 3.2399061 13.125 6.5625 C15.75269047 9.01201743 15.75269047 9.01201743 18.3125 10.0625 C20 11 20 11 20.60546875 13.05859375 C20.73566406 13.69925781 20.86585937 14.33992187 21 15 C6.07369335 5.66396409 6.07369335 5.66396409 0 1 C0 0.67 0 0.34 0 0 Z " fill="#5CA69D" transform="translate(60,202)"/>
<path d="M0 0 C6.37965671 2.04630498 6.37965671 2.04630498 8.09765625 4.6875 C8.81801089 6.42503883 9.41495281 8.2123558 10 10 C10.33 10.66 10.66 11.32 11 12 C9 11 7 10 5 9 C5 8.34 5 7.68 5 7 C4.38125 6.9175 3.7625 6.835 3.125 6.75 C1 6 1 6 -0.3125 4.0625 C-0.539375 3.381875 -0.76625 2.70125 -1 2 C-0.67 1.34 -0.34 0.68 0 0 Z " fill="#0C0C36" transform="translate(231,139)"/>
<path d="M0 0 C2.03290685 1.68221672 2.91799577 2.68023852 3.58203125 5.26953125 C4.04395795 10.36638349 4.14622013 14.20256677 2 19 C1.67 19 1.34 19 1 19 C0.93941406 18.19175781 0.87882812 17.38351563 0.81640625 16.55078125 C0.73261719 15.48214844 0.64882813 14.41351563 0.5625 13.3125 C0.48128906 12.25675781 0.40007812 11.20101562 0.31640625 10.11328125 C0.06227134 7.0400235 0.06227134 7.0400235 -0.59765625 4.23046875 C-1 2 -1 2 0 0 Z " fill="#080529" transform="translate(290,146)"/>
<path d="M0 0 C4.10110762 1.40398279 6.98089159 3.37087038 10.3125 6.125 C11.19550781 6.84945312 12.07851562 7.57390625 12.98828125 8.3203125 C13.65214844 8.87460938 14.31601563 9.42890625 15 10 C14.67 10.66 14.34 11.32 14 12 C11.03 11.01 8.06 10.02 5 9 C4.9175 8.2575 4.835 7.515 4.75 6.75 C3.8603054 3.48778646 2.51496251 2.19045122 0 0 Z " fill="#2D2847" transform="translate(207,78)"/>
<path d="M0 0 C2.88437779 1.29299694 4.87219421 2.65941363 7 5 C6.34 5.66 5.68 6.32 5 7 C4.01 7 3.02 7 2 7 C0.66018514 7.3062434 -0.67511887 7.63451555 -2 8 C-2.66 6.68 -3.32 5.36 -4 4 C-3.34 4 -2.68 4 -2 4 C-2 3.34 -2 2.68 -2 2 C-1.34 2 -0.68 2 0 2 C0 1.34 0 0.68 0 0 Z " fill="#0F0E35" transform="translate(252,111)"/>
<path d="M0 0 C5.65777441 0.7072218 11.18790409 2.9613921 15 7.25 C15.33 7.8275 15.66 8.405 16 9 C15.67 9.66 15.34 10.32 15 11 C12.49720508 9.35828571 9.99772323 7.71189741 7.5 6.0625 C6.78457031 5.59392578 6.06914062 5.12535156 5.33203125 4.64257812 C3.53711592 3.45451512 1.7663474 2.23013479 0 1 C0 0.67 0 0.34 0 0 Z " fill="#092447" transform="translate(256,160)"/>
<path d="M0 0 C1.98 1.32 3.96 2.64 6 4 C4.33333333 5.33333333 2.66666667 6.66666667 1 8 C0.154375 8.763125 -0.69125 9.52625 -1.5625 10.3125 C-4 12 -4 12 -6.3125 11.75 C-6.869375 11.5025 -7.42625 11.255 -8 11 C-7.01 10.67 -6.02 10.34 -5 10 C-5 9.34 -5 8.68 -5 8 C-3.02 7.34 -1.04 6.68 1 6 C0.67 4.02 0.34 2.04 0 0 Z " fill="#66B2AC" transform="translate(226,139)"/>
<path d="M0 0 C4.21445123 0.59314499 7.30203203 3.0418034 10.6875 5.4375 C11.28111328 5.84548828 11.87472656 6.25347656 12.48632812 6.67382812 C16.86838574 9.73677147 16.86838574 9.73677147 18 12 C12.94563405 11.54310816 10.00641686 9.06535132 6.1875 6 C5.59001953 5.5359375 4.99253906 5.071875 4.37695312 4.59375 C2.89298446 3.42692664 1.44309213 2.21701474 0 1 C0 0.67 0 0.34 0 0 Z " fill="#5DAA9A" transform="translate(101,231)"/>
<path d="M0 0 C2.98704569 0.49784095 4.39324263 1.26216175 7 3 C7 3.66 7 4.32 7 5 C7.804375 5.28875 8.60875 5.5775 9.4375 5.875 C12 7 12 7 13 9 C11.35 8.67 9.7 8.34 8 8 C8 7.34 8 6.68 8 6 C5.69 5.67 3.38 5.34 1 5 C1 4.01 1 3.02 1 2 C0.34 1.67 -0.32 1.34 -1 1 C-0.67 0.67 -0.34 0.34 0 0 Z " fill="#151331" transform="translate(221,89)"/>
<path d="M0 0 C3.34708051 1.54841575 6.24667512 3.49105864 9.25 5.625 C10.14203125 6.25664063 11.0340625 6.88828125 11.953125 7.5390625 C12.96632812 8.26222656 12.96632812 8.26222656 14 9 C10.58900832 9 7.36911686 8.50854594 4 8 C4 7.34 4 6.68 4 6 C3.34 6 2.68 6 2 6 C1.34 4.02 0.68 2.04 0 0 Z " fill="#2F2B4E" transform="translate(193,68)"/>
<path d="M0 0 C-0.30618405 3.67420866 -0.75771784 4.78135513 -3.5625 7.3125 C-4.366875 7.869375 -5.17125 8.42625 -6 9 C-5.67 7.68 -5.34 6.36 -5 5 C-5.99 5.33 -6.98 5.66 -8 6 C-7.67 4.35 -7.34 2.7 -7 1 C-2.25 0 -2.25 0 0 0 Z " fill="#100F36" transform="translate(130,105)"/>
<path d="M0 0 C4.29926263 1.59231949 6.35005733 4.39313359 9 8 C9 8.99 9 9.98 9 11 C8.01 10.67 7.02 10.34 6 10 C5.33333333 8.66666667 4.66666667 7.33333333 4 6 C3.01 5.67 2.02 5.34 1 5 C0.67 3.35 0.34 1.7 0 0 Z " fill="#16132E" transform="translate(281,133)"/>
<path d="M0 0 C1.4540625 0.0309375 1.4540625 0.0309375 2.9375 0.0625 C1.9475 0.3925 0.9575 0.7225 -0.0625 1.0625 C-0.0625 1.7225 -0.0625 2.3825 -0.0625 3.0625 C-1.0525 3.5575 -1.0525 3.5575 -2.0625 4.0625 C-1.4025 4.7225 -0.7425 5.3825 -0.0625 6.0625 C-3.43347383 7.56071059 -5.26692119 8.0625 -9.0625 8.0625 C-9.0625 7.4025 -9.0625 6.7425 -9.0625 6.0625 C-7.4125 6.0625 -5.7625 6.0625 -4.0625 6.0625 C-4.083125 5.258125 -4.10375 4.45375 -4.125 3.625 C-4.03366838 -0.11959638 -3.80090148 0.07756942 0 0 Z " fill="#5DC6BC" transform="translate(221.0625,145.9375)"/>
<path d="M0 0 C0.66 0.33 1.32 0.66 2 1 C-2.16272163 6.47100557 -5.24232403 8.49829423 -12 10 C-8.29909479 6.0747975 -4.45040344 3.05419844 0 0 Z " fill="#332D49" transform="translate(108,76)"/>
<path d="M0 0 C2.475 0.99 2.475 0.99 5 2 C3 5 3 5 0.5625 5.5 C-0.283125 5.665 -1.12875 5.83 -2 6 C-3.79385992 7.4579186 -3.79385992 7.4579186 -5 9 C-5.66 8.67 -6.32 8.34 -7 8 C-6.21625 7.236875 -5.4325 6.47375 -4.625 5.6875 C-1.92742283 3.09108195 -1.92742283 3.09108195 0 0 Z " fill="#54A3A5" transform="translate(196,118)"/>
<path d="M0 0 C-0.33 1.32 -0.66 2.64 -1 4 C-1.66 4 -2.32 4 -3 4 C-3 4.66 -3 5.32 -3 6 C-5.70879335 7.35439668 -8.00933268 7.06501451 -11 7 C-10.67 6.34 -10.34 5.68 -10 5 C-9.01 5 -8.02 5 -7 5 C-6.67 4.01 -6.34 3.02 -6 2 C-3.85412616 0.684787 -2.52986895 0 0 0 Z " fill="#08062A" transform="translate(125,110)"/>
<path d="M0 0 C4.43458973 1.3937282 6.87378374 3.60582235 10 7 C9.0925 6.814375 8.185 6.62875 7.25 6.4375 C4.31685676 6.04265379 2.7355343 6.05308428 0 7 C0 4.69 0 2.38 0 0 Z " fill="#252043" transform="translate(179,58)"/>
<path d="M0 0 C6.4 0.36923077 6.4 0.36923077 9.4375 3.5625 C9.953125 4.366875 10.46875 5.17125 11 6 C9.02 6.33 7.04 6.66 5 7 C5 5.68 5 4.36 5 3 C2.03 2.505 2.03 2.505 -1 2 C-0.67 1.34 -0.34 0.68 0 0 Z " fill="#53CAC2" transform="translate(63,161)"/>
<path d="M0 0 C0.33 0.99 0.66 1.98 1 3 C0.01 4.485 0.01 4.485 -1 6 C-1.16713569 8.62531524 -1.16713569 8.62531524 -1 11 C-1.33 10.01 -1.66 9.02 -2 8 C-3.65 8.33 -5.3 8.66 -7 9 C-2.85714286 2.57142857 -2.85714286 2.57142857 0 0 Z " fill="#131135" transform="translate(32,132)"/>
<path d="M0 0 C3.11373372 1.49920512 6.12228205 3.08152136 9 5 C9 5.66 9 6.32 9 7 C9.66 7.33 10.32 7.66 11 8 C8.6568787 7.74438677 6.32156597 7.40729228 4 7 C3.67 6.34 3.34 5.68 3 5 C2.01 4.34 1.02 3.68 0 3 C0 2.01 0 1.02 0 0 Z " fill="#181636" transform="translate(241,103)"/>
<path d="M0 0 C0.33 0 0.66 0 1 0 C1 2.97 1 5.94 1 9 C-4.75 7.375 -4.75 7.375 -7 4 C-5.34385343 3.61781233 -3.67542976 3.28604898 -2 3 C-1.67 3.33 -1.34 3.66 -1 4 C-0.67 2.68 -0.34 1.36 0 0 Z " fill="#53C7BC" transform="translate(135,245)"/>
<path d="M0 0 C0.66 0.33 1.32 0.66 2 1 C0.57277341 2.1998278 -0.86715776 3.3845576 -2.3125 4.5625 C-3.51326172 5.55443359 -3.51326172 5.55443359 -4.73828125 6.56640625 C-5.85783203 7.27603516 -5.85783203 7.27603516 -7 8 C-7.99 7.67 -8.98 7.34 -10 7 C-10 6.01 -10 5.02 -10 4 C-8.9171875 3.8453125 -8.9171875 3.8453125 -7.8125 3.6875 C-4.90447434 3.12539114 -4.90447434 3.12539114 -2.3125 1.375 C-1.549375 0.92125 -0.78625 0.4675 0 0 Z " fill="#62A59D" transform="translate(186,174)"/>
<path d="M0 0 C-2.85276137 2.93200474 -5.65079784 5.64315404 -9 8 C-9.66 7.67 -10.32 7.34 -11 7 C-8.76456876 1.59770784 -5.88000164 -0.49000014 0 0 Z " fill="#211F3E" transform="translate(119,117)"/>
<path d="M0 0 C-1.50139512 4.20390632 -4.17275043 5.89110738 -8 8 C-8.99 7.67 -9.98 7.34 -11 7 C-4.48275862 0 -4.48275862 0 0 0 Z " fill="#55AEA6" transform="translate(224,222)"/>
<path d="M0 0 C0.66 0.99 1.32 1.98 2 3 C4.05003955 4.19232613 4.05003955 4.19232613 6 5 C4.75 6.5 4.75 6.5 3 8 C1.68 8 0.36 8 -1 8 C-0.67 5.36 -0.34 2.72 0 0 Z " fill="#66A5A3" transform="translate(177,249)"/>
<path d="M0 0 C2.475 0.99 2.475 0.99 5 2 C5 3.66666667 5 5.33333333 5 7 C3.68 7.33 2.36 7.66 1 8 C0.34 5.69 -0.32 3.38 -1 1 C-0.67 0.67 -0.34 0.34 0 0 Z " fill="#49C4BC" transform="translate(99,224)"/>
<path d="M0 0 C0.66 0.33 1.32 0.66 2 1 C1.23046687 4.84766567 -0.2397053 6.2397053 -3 9 C-3.33 8.01 -3.66 7.02 -4 6 C-4.66 5.67 -5.32 5.34 -6 5 C-4.02 3.35 -2.04 1.7 0 0 Z " fill="#282246" transform="translate(94,86)"/>
<path d="M0 0 C0.33 0.66 0.66 1.32 1 2 C1.66 2.33 2.32 2.66 3 3 C0.75 5.0625 0.75 5.0625 -2 7 C-4.3125 6.75 -4.3125 6.75 -6 6 C-5.34 5.01 -4.68 4.02 -4 3 C-3.01 3 -2.02 3 -1 3 C-0.67 2.01 -0.34 1.02 0 0 Z " fill="#161434" transform="translate(87,136)"/>
<path d="M0 0 C3.63 2.31 7.26 4.62 11 7 C10.34 8.32 9.68 9.64 9 11 C7.66666667 9.66666667 6.33333333 8.33333333 5 7 C4.0925 6.13375 3.185 5.2675 2.25 4.375 C0 2 0 2 0 0 Z " fill="#5BBAC2" transform="translate(201,121)"/>
<path d="M0 0 C0.66 0.33 1.32 0.66 2 1 C1.360625 1.61875 0.72125 2.2375 0.0625 2.875 C-2.03883584 4.82597612 -2.03883584 4.82597612 -3 7 C-4 8 -4 8 -6.5625 8.0625 C-7.366875 8.041875 -8.17125 8.02125 -9 8 C-6.14723863 5.06799526 -3.34920216 2.35684596 0 0 Z " fill="#3B3658" transform="translate(119,68)"/>
<path d="M0 0 C3.87132028 0.57352893 6.08172796 2.48704352 9 5 C8.67 5.66 8.34 6.32 8 7 C8.99 7.33 9.98 7.66 11 8 C10.01 8.495 10.01 8.495 9 9 C6 6 3 3 0 0 Z " fill="#52B3AC" transform="translate(101,185)"/>
<path d="M0 0 C2 3 2 3 2 5 C3.32 5.33 4.64 5.66 6 6 C4.375 6.75 4.375 6.75 2 7 C-1.25 5.0625 -1.25 5.0625 -4 3 C-2.68 2.01 -1.36 1.02 0 0 Z " fill="#50BBB0" transform="translate(44,185)"/>
<path d="M0 0 C1.65 0.33 3.3 0.66 5 1 C1.80331012 3.6486859 -1.39486597 5.93992341 -5 8 C-4.34 6.02 -3.68 4.04 -3 2 C-2.34 2 -1.68 2 -1 2 C-0.67 1.34 -0.34 0.68 0 0 Z " fill="#4CCBB8" transform="translate(267,186)"/>
<path d="M0 0 C3.45925163 1.2491742 6.14693203 2.67527795 9 5 C8.67 5.99 8.34 6.98 8 8 C5.96166576 6.7260411 3.96147874 5.38938077 2 4 C2 3.34 2 2.68 2 2 C1.34 2 0.68 2 0 2 C0 1.34 0 0.68 0 0 Z " fill="#5CA79E" transform="translate(91,177)"/>
<path d="M0 0 C0.99 0 1.98 0 3 0 C1.82255415 3.53233755 1.04394359 3.86308075 -2.0625 5.6875 C-2.79597656 6.12449219 -3.52945313 6.56148437 -4.28515625 7.01171875 C-4.85105469 7.33785156 -5.41695312 7.66398438 -6 8 C-6 7.01 -6 6.02 -6 5 C-2.66666667 2 -2.66666667 2 0 2 C0 1.34 0 0.68 0 0 Z " fill="#5CACA1" transform="translate(195,166)"/>
<path d="M0 0 C2.97 0 5.94 0 9 0 C7.35 1.65 5.7 3.3 4 5 C3.34 4.67 2.68 4.34 2 4 C2 3.01 2 2.02 2 1 C1.34 0.67 0.68 0.34 0 0 Z " fill="#19173C" transform="translate(70,146)"/>
<path d="M0 0 C0.99 0.33 1.98 0.66 3 1 C2.67 2.98 2.34 4.96 2 7 C1.67 6.01 1.34 5.02 1 4 C-1.475 5.485 -1.475 5.485 -4 7 C-2.92598892 4.08482708 -2.22189824 2.22189824 0 0 Z " fill="#140E2D" transform="translate(134,57)"/>
<path d="M0 0 C1 3 1 3 1 5 C1.9590625 5.433125 1.9590625 5.433125 2.9375 5.875 C5 7 5 7 6 9 C1.58110387 7.64978174 -0.34345343 5.73884332 -3 2 C-2.01 1.34 -1.02 0.68 0 0 Z " fill="#609DA0" transform="translate(33,177)"/>
<path d="M0 0 C1.70680947 1.62553283 3.37660195 3.29115995 5 5 C4.67 5.99 4.34 6.98 4 8 C4 7.34 4 6.68 4 6 C2.8553125 5.5978125 2.8553125 5.5978125 1.6875 5.1875 C-0.87380884 4.05575888 -2.19692938 3.08776599 -4 1 C-2 0 -2 0 0 0 Z " fill="#5E999B" transform="translate(66,156)"/>
<path d="M0 0 C1.32 0.66 2.64 1.32 4 2 C3.34 3.65 2.68 5.3 2 7 C0.68 6.34 -0.64 5.68 -2 5 C-2 3 -2 3 0 1 C0 0.67 0 0.34 0 0 Z " fill="#221E43" transform="translate(189,65)"/>
<path d="M0 0 C0.66 0.33 1.32 0.66 2 1 C-0.46153846 5.8 -0.46153846 5.8 -3.1875 6.8125 C-3.785625 6.874375 -4.38375 6.93625 -5 7 C-4.60196439 4.11424181 -4.20990931 3.17810487 -1.9375 1.25 C-1.298125 0.8375 -0.65875 0.425 0 0 Z " fill="#53C7BC" transform="translate(183,207)"/>
<path d="M0 0 C1.65 0 3.3 0 5 0 C5.66 1.65 6.32 3.3 7 5 C4.03 4.505 4.03 4.505 1 4 C0.67 2.68 0.34 1.36 0 0 Z " fill="#07062C" transform="translate(265,123)"/>
<path d="M0 0 C0.66 0.33 1.32 0.66 2 1 C1.34 2.65 0.68 4.3 0 6 C-1.98 6 -3.96 6 -6 6 C-4 4 -2 2 0 0 Z " fill="#272041" transform="translate(50,118)"/>
<path d="M0 0 C0.66 0.33 1.32 0.66 2 1 C1.67 1.99 1.34 2.98 1 4 C1.66 4.66 2.32 5.32 3 6 C2.01 6 1.02 6 0 6 C-0.33 6.99 -0.66 7.98 -1 9 C-1.144375 8.21625 -1.28875 7.4325 -1.4375 6.625 C-1.87798925 4.03578982 -1.87798925 4.03578982 -3 2 C-2.01 1.34 -1.02 0.68 0 0 Z " fill="#1F1B3D" transform="translate(82,95)"/>
<path d="M0 0 C3.15330554 0.60694155 5.18888867 1.6416665 7.75 3.5625 C8.67039063 4.24505859 8.67039063 4.24505859 9.609375 4.94140625 C10.29773438 5.46541016 10.29773438 5.46541016 11 6 C10.01 6.33 9.02 6.66 8 7 C5.95703125 5.8203125 5.95703125 5.8203125 3.8125 4.125 C3.09707031 3.57070312 2.38164062 3.01640625 1.64453125 2.4453125 C1.10183594 1.96835938 0.55914062 1.49140625 0 1 C0 0.67 0 0.34 0 0 Z " fill="#050224" transform="translate(201,76)"/>
<path d="M0 0 C3.0109362 2.0072908 3.63016497 2.83884224 5 6 C2.36 5.34 -0.28 4.68 -3 4 C-3 3.34 -3 2.68 -3 2 C-2.01 2 -1.02 2 0 2 C0 1.34 0 0.68 0 0 Z " fill="#4CC6BB" transform="translate(100,183)"/>
<path d="M0 0 C3.465 1.485 3.465 1.485 7 3 C6.67 4.32 6.34 5.64 6 7 C3 5.1875 3 5.1875 0 3 C0 2.01 0 1.02 0 0 Z " fill="#031D3D" transform="translate(272,169)"/>
<path d="M0 0 C0.66 0.33 1.32 0.66 2 1 C-0.31 2.65 -2.62 4.3 -5 6 C-5.66 5.01 -6.32 4.02 -7 3 C-4.69631264 1.93347808 -2.35981813 0.93578995 0 0 Z " fill="#76B9B1" transform="translate(216,153)"/>
<path d="M0 0 C3 2 3 2 3.6875 4.625 C3.790625 5.40875 3.89375 6.1925 4 7 C1.69 5.35 -0.62 3.7 -3 2 C-2.01 1.34 -1.02 0.68 0 0 Z " fill="#20203C" transform="translate(245,150)"/>
<path d="M0 0 C3.24299151 2.38957269 5.50902342 4.2047869 7 8 C4.50638429 6.79618552 2.31856917 5.54571278 0 4 C0 2.68 0 1.36 0 0 Z " fill="#25233A" transform="translate(177,101)"/>
<path d="M0 0 C3.36591866 1.44253657 5.51047079 3.33264727 8 6 C5.21788056 5.62403791 3.4120716 5.32681541 1.1875 3.5625 C0 2 0 2 0 0 Z " fill="#51A9A2" transform="translate(111,237)"/>
<path d="M0 0 C2.375 0.6875 2.375 0.6875 5 2 C6.3125 4.625 6.3125 4.625 7 7 C4.36 5.35 1.72 3.7 -1 2 C-0.67 1.34 -0.34 0.68 0 0 Z " fill="#57ACA3" transform="translate(74,210)"/>
<path d="M0 0 C2.8992226 0.46761655 3.86675182 0.86675182 6 3 C4.329375 3.2165625 4.329375 3.2165625 2.625 3.4375 C-0.82142047 3.78372035 -0.82142047 3.78372035 -3 5 C-1.125 1.125 -1.125 1.125 0 0 Z " fill="#5EC4C7" transform="translate(250,158)"/>
<path d="M0 0 C3.79588866 0.54226981 5.47211993 2.20127563 8 5 C7.01 5.495 7.01 5.495 6 6 C3.96166576 4.7260411 1.96147874 3.38938077 0 2 C0 1.34 0 0.68 0 0 Z " fill="#0C2749" transform="translate(214,129)"/>
<path d="M0 0 C0 0.99 0 1.98 0 3 C-2.3125 5.25 -2.3125 5.25 -5 7 C-5.99 6.67 -6.98 6.34 -8 6 C-2.25 1.125 -2.25 1.125 0 0 Z " fill="#54C7BA" transform="translate(189,127)"/>
<path d="M0 0 C0.33 0.66 0.66 1.32 1 2 C-0.32 3.65 -1.64 5.3 -3 7 C-3.66 6.67 -4.32 6.34 -5 6 C-4.1875 3.5625 -4.1875 3.5625 -3 1 C-2.01 0.67 -1.02 0.34 0 0 Z " fill="#0C0630" transform="translate(76,101)"/>
<path d="M0 0 C1.65 0 3.3 0 5 0 C4.34 1.65 3.68 3.3 3 5 C1.35 4.67 -0.3 4.34 -2 4 C-1.34 2.68 -0.68 1.36 0 0 Z " fill="#4EC6BC" transform="translate(181,249)"/>
<path d="M0 0 C1.9375 0.6875 1.9375 0.6875 4 2 C4.75 4.625 4.75 4.625 5 7 C3.0625 6.3125 3.0625 6.3125 1 5 C0.25 2.375 0.25 2.375 0 0 Z " fill="#0F0B2C" transform="translate(281,133)"/>
<path d="M0 0 C0.66 0.33 1.32 0.66 2 1 C0.8125 3.5 0.8125 3.5 -1 6 C-3.6875 6.3125 -3.6875 6.3125 -6 6 C-4 4 -2 2 0 0 Z " fill="#282645" transform="translate(42,124)"/>
<path d="M0 0 C0.33 0.66 0.66 1.32 1 2 C3.02463255 2.65213292 3.02463255 2.65213292 5 3 C4.01 3.99 3.02 4.98 2 6 C0.68 5.34 -0.64 4.68 -2 4 C-1.34 2.68 -0.68 1.36 0 0 Z " fill="#0C0E41" transform="translate(196,74)"/>
<path d="M0 0 C0.99 0.66 1.98 1.32 3 2 C-0.625 5 -0.625 5 -4 5 C-3 2 -3 2 0 0 Z " fill="#59B6A7" transform="translate(256,197)"/>
<path d="M0 0 C0.99 0 1.98 0 3 0 C3 0.99 3 1.98 3 3 C3.66 3 4.32 3 5 3 C5 3.99 5 4.98 5 6 C2.53199953 4.84826645 0.95216435 3.95216435 -1 2 C-0.67 1.34 -0.34 0.68 0 0 Z " fill="#092047" transform="translate(251,154)"/>
<path d="M0 0 C2.3125 0.1875 2.3125 0.1875 5 1 C6.8125 3.5625 6.8125 3.5625 8 6 C6 5 4 4 2 3 C2 2.34 2 1.68 2 1 C1.34 0.67 0.68 0.34 0 0 Z " fill="#211B38" transform="translate(234,145)"/>
<path d="M0 0 C1.0625 1.8125 1.0625 1.8125 2 4 C1.67 4.99 1.34 5.98 1 7 C0.01 7 -0.98 7 -2 7 C-1.125 2.25 -1.125 2.25 0 0 Z " fill="#161336" transform="translate(24,142)"/>
<path d="M0 0 C2.97 1.98 2.97 1.98 6 4 C4.68 4.99 3.36 5.98 2 7 C1.34 4.69 0.68 2.38 0 0 Z " fill="#4E9CAC" transform="translate(226,139)"/>
<path d="M0 0 C2.0625 0.4375 2.0625 0.4375 4 1 C4 1.99 4 2.98 4 4 C3.01 4.33 2.02 4.66 1 5 C0.34 3.68 -0.32 2.36 -1 1 C-0.67 0.67 -0.34 0.34 0 0 Z " fill="#0A082C" transform="translate(275,129)"/>
<path d="M0 0 C0.66 0 1.32 0 2 0 C2 0.66 2 1.32 2 2 C3.2065625 2.433125 3.2065625 2.433125 4.4375 2.875 C7 4 7 4 8 6 C6.35 5.67 4.7 5.34 3 5 C3 4.34 3 3.68 3 3 C2.34 3 1.68 3 1 3 C0.67 2.01 0.34 1.02 0 0 Z " fill="#262341" transform="translate(226,92)"/>
</svg>
